<svg width="419" height="660" viewBox="0 0 419 660" fill="none" xmlns="http://www.w3.org/2000/svg">
<g filter="url(#filter0_d_0_4910)">
<path fill-rule="evenodd" clip-rule="evenodd" d="M88.776 55.5695H280.009C298.35 55.5695 313.217 69.8048 313.217 87.365V522.635C313.217 540.195 298.35 554.431 280.009 554.431H88.776C70.4357 554.431 55.5679 540.195 55.5679 522.635V87.365C55.5679 69.8048 70.4357 55.5695 88.776 55.5695Z" fill="#213648"/>
</g>
<path opacity="0.595562" fill-rule="evenodd" clip-rule="evenodd" d="M280.749 55H87.9226C78.92 55.549 70.6174 59.6569 63.0146 67.3239C67.9041 63.0559 76.6249 57.3446 88.1546 57.3446C88.1546 57.3446 272.83 57.3446 280.517 57.3446C292.046 57.3446 300.767 63.0559 305.656 67.3239C298.054 59.6569 289.751 55.549 280.749 55Z" fill="url(#paint0_linear_0_4910)" fill-opacity="0.65"/>
<path opacity="0.75" fill-rule="evenodd" clip-rule="evenodd" d="M307.999 517.671V89.9818C307.999 78.5065 303.782 74.2644 301.266 71.5405C298.75 68.8166 298.643 67.4272 302.258 69.4839C305.873 71.5405 313.103 77.5306 313.103 89.9818V517.671C313.103 530.122 305.873 536.112 302.258 538.169C298.643 540.225 298.75 538.836 301.266 536.112C303.782 533.388 307.999 529.146 307.999 517.671Z" fill="url(#paint1_linear_0_4910)"/>
<path opacity="0.75" fill-rule="evenodd" clip-rule="evenodd" d="M60.672 517.671V89.9818C60.672 78.5065 64.8894 74.2644 67.4053 71.5405C69.9212 68.8166 70.0283 67.4272 66.4134 69.4839C62.7984 71.5405 55.568 77.5306 55.568 89.9818V517.671C55.568 530.122 62.7984 536.112 66.4134 538.169C70.0283 540.225 69.9212 538.836 67.4053 536.112C64.8894 533.388 60.672 529.146 60.672 517.671Z" fill="url(#paint2_linear_0_4910)"/>
<path fill-rule="evenodd" clip-rule="evenodd" d="M53 158.556C53 157.452 53.8954 156.556 55 156.556H55.9645C57.0691 156.556 57.9645 157.452 57.9645 158.556V218.907C57.9645 220.012 57.0691 220.907 55.9645 220.907H55C53.8954 220.907 53 220.012 53 218.907V158.556Z" fill="#2E423C"/>
<path fill-rule="evenodd" clip-rule="evenodd" d="M310.535 211.043C310.535 209.939 311.431 209.043 312.535 209.043H313.5C314.605 209.043 315.5 209.939 315.5 211.043V253.993C315.5 255.098 314.605 255.993 313.5 255.993H312.535C311.431 255.993 310.535 255.098 310.535 253.993V211.043Z" fill="#2E423C"/>
<g clip-path="url(#clip0_0_4910)">
<path fill-rule="evenodd" clip-rule="evenodd" d="M161.676 67.4445L87.2698 67.4445C76.1653 67.4445 68.0742 75.0078 68.0742 84.8859V507.276C68.0742 520.155 80.5765 531.567 94.7134 531.567H274.046C287.664 531.567 300.686 520.067 300.686 507.276V86.0276C300.686 74.188 291.896 67.5149 281.49 67.4445L205.904 67.4445C205.618 67.4914 200.425 69.6262 198.231 75.0078C196.036 80.3893 191.621 84.6793 186.787 84.6793H181.172C178.874 84.6793 172.824 82.4496 169.76 75.0078C166.697 67.5659 161.963 67.4914 161.676 67.4445Z" fill="white"/>
<mask id="mask0_0_4910" style="mask-type:luminance" maskUnits="userSpaceOnUse" x="68" y="67" width="233" height="465">
<path fill-rule="evenodd" clip-rule="evenodd" d="M161.676 67.4445L87.2698 67.4445C76.1653 67.4445 68.0742 75.0078 68.0742 84.8859V507.276C68.0742 520.155 80.5765 531.567 94.7134 531.567H274.046C287.664 531.567 300.686 520.067 300.686 507.276V86.0276C300.686 74.188 291.896 67.5149 281.49 67.4445L205.904 67.4445C205.618 67.4914 200.425 69.6262 198.231 75.0078C196.036 80.3893 191.621 84.6793 186.787 84.6793H181.172C178.874 84.6793 172.824 82.4496 169.76 75.0078C166.697 67.5659 161.963 67.4914 161.676 67.4445Z" fill="white"/>
</mask>
<g mask="url(#mask0_0_4910)">
<rect x="68" y="67.4445" width="233" height="465" fill="url(#paint3_linear_0_4910)"/>
<path d="M147.504 196V178.672H143.376V176.032C144.699 176.032 145.765 175.909 146.576 175.664C147.397 175.408 148.011 175.045 148.416 174.576C148.821 174.096 149.061 173.525 149.136 172.864H152.24V196H147.504ZM157.496 196V193.696V192.512C157.496 191.339 157.714 190.325 158.152 189.472C158.589 188.608 159.165 187.861 159.88 187.232C160.605 186.592 161.394 186.032 162.248 185.552C163.112 185.072 163.976 184.619 164.84 184.192C165.704 183.765 166.493 183.339 167.208 182.912C167.933 182.475 168.514 181.989 168.952 181.456C169.389 180.923 169.608 180.293 169.608 179.568C169.608 178.64 169.282 177.883 168.632 177.296C167.992 176.709 167.112 176.416 165.992 176.416C164.829 176.416 163.842 176.752 163.032 177.424C162.221 178.096 161.72 179.109 161.528 180.464H157.064C157.085 178.992 157.426 177.659 158.088 176.464C158.76 175.259 159.762 174.304 161.096 173.6C162.429 172.896 164.104 172.544 166.12 172.544C167.848 172.544 169.336 172.837 170.584 173.424C171.842 174.011 172.813 174.827 173.496 175.872C174.178 176.917 174.52 178.139 174.52 179.536C174.52 180.699 174.306 181.701 173.88 182.544C173.453 183.387 172.888 184.107 172.184 184.704C171.48 185.301 170.706 185.824 169.864 186.272C169.021 186.72 168.178 187.136 167.336 187.52C166.504 187.904 165.736 188.299 165.032 188.704C164.328 189.099 163.762 189.547 163.336 190.048C162.909 190.549 162.696 191.152 162.696 191.856V192.064H174.488V196H157.496ZM182.704 179.856V184.864H177.584V179.856H182.704ZM182.704 190.912V195.904H177.584V190.912H182.704ZM196.451 172.864H201.043V186.96H204.611V190.88H201.043V196H196.547L196.563 190.88H185.907V187.04L196.451 172.864ZM190.227 186.96H196.563V178.48L190.227 186.96ZM215.435 196.352C213.995 196.352 212.651 196.075 211.403 195.52C210.155 194.965 209.137 194.187 208.347 193.184C207.558 192.171 207.115 190.987 207.019 189.632H211.467C211.659 190.528 212.086 191.259 212.747 191.824C213.409 192.379 214.241 192.656 215.243 192.656C216.353 192.656 217.323 192.395 218.155 191.872C218.998 191.349 219.627 190.517 220.043 189.376C220.47 188.235 220.619 186.741 220.491 184.896C220.193 185.461 219.777 185.957 219.243 186.384C218.721 186.8 218.107 187.125 217.403 187.36C216.699 187.584 215.915 187.696 215.051 187.696C213.483 187.696 212.091 187.403 210.875 186.816C209.67 186.219 208.721 185.376 208.027 184.288C207.345 183.189 207.003 181.888 207.003 180.384C207.003 178.869 207.366 177.52 208.091 176.336C208.817 175.152 209.83 174.224 211.131 173.552C212.433 172.88 213.958 172.544 215.707 172.544C217.67 172.544 219.361 173.013 220.779 173.952C222.209 174.88 223.302 176.203 224.059 177.92C224.827 179.627 225.211 181.637 225.211 183.952C225.211 186.715 224.817 189.019 224.027 190.864C223.249 192.699 222.129 194.075 220.667 194.992C219.206 195.899 217.462 196.352 215.435 196.352ZM215.851 183.984C216.502 183.984 217.131 183.84 217.739 183.552C218.358 183.253 218.865 182.88 219.259 182.432C219.654 181.984 219.851 181.52 219.851 181.04C219.862 180.005 219.697 179.12 219.355 178.384C219.025 177.637 218.555 177.067 217.947 176.672C217.35 176.277 216.651 176.08 215.851 176.08C215.115 176.08 214.459 176.251 213.883 176.592C213.307 176.933 212.854 177.413 212.523 178.032C212.193 178.651 212.027 179.365 212.027 180.176C212.027 181.381 212.379 182.32 213.083 182.992C213.787 183.653 214.71 183.984 215.851 183.984Z" fill="white"/>
</g>
</g>
<g clip-path="url(#clip1_0_4910)">
<g filter="url(#filter1_d_0_4910)">
<rect x="76" y="223" width="218" height="87" rx="5" fill="#FBFCFE"/>
</g>
<g clip-path="url(#clip2_0_4910)">
<path d="M92.81 249V241.77H95.47C95.9967 241.77 96.4683 241.862 96.885 242.045C97.3017 242.225 97.63 242.492 97.87 242.845C98.1133 243.198 98.235 243.63 98.235 244.14C98.235 244.62 98.1283 245.03 97.915 245.37C97.7017 245.71 97.4017 245.97 97.015 246.15C96.6317 246.33 96.18 246.42 95.66 246.42H94.28V249H92.81ZM94.265 245.29H95.62C95.9867 245.29 96.2867 245.173 96.52 244.94C96.7533 244.703 96.87 244.412 96.87 244.065C96.87 243.705 96.7467 243.42 96.5 243.21C96.2533 242.997 95.9533 242.89 95.6 242.89H94.265V245.29ZM100.512 249.1C100.182 249.1 99.8851 249.038 99.6217 248.915C99.3584 248.792 99.1501 248.613 98.9967 248.38C98.8434 248.143 98.7667 247.857 98.7667 247.52C98.7667 246.953 98.9784 246.523 99.4017 246.23C99.8251 245.933 100.493 245.78 101.407 245.77L102.052 245.76V245.45C102.052 245.213 101.982 245.032 101.842 244.905C101.705 244.775 101.492 244.712 101.202 244.715C100.988 244.718 100.785 244.768 100.592 244.865C100.402 244.962 100.272 245.13 100.202 245.37H98.9867C99.0067 244.997 99.1151 244.69 99.3117 244.45C99.5084 244.207 99.7751 244.027 100.112 243.91C100.452 243.79 100.837 243.73 101.267 243.73C101.797 243.73 102.222 243.797 102.542 243.93C102.862 244.06 103.093 244.248 103.237 244.495C103.38 244.738 103.452 245.028 103.452 245.365V249H102.232L102.112 248.11C101.935 248.483 101.713 248.742 101.447 248.885C101.183 249.028 100.872 249.1 100.512 249.1ZM101.002 248.14C101.135 248.14 101.263 248.117 101.387 248.07C101.513 248.02 101.625 247.955 101.722 247.875C101.822 247.792 101.902 247.698 101.962 247.595C102.022 247.492 102.052 247.385 102.052 247.275V246.51L101.527 246.52C101.283 246.523 101.057 246.553 100.847 246.61C100.637 246.663 100.467 246.752 100.337 246.875C100.21 246.998 100.147 247.165 100.147 247.375C100.147 247.615 100.23 247.803 100.397 247.94C100.563 248.073 100.765 248.14 101.002 248.14ZM105.364 250.65C105.01 250.65 104.76 250.62 104.614 250.56C104.47 250.503 104.399 250.475 104.399 250.475V249.545L104.909 249.565C105.132 249.578 105.312 249.567 105.449 249.53C105.585 249.497 105.689 249.452 105.759 249.395C105.832 249.338 105.884 249.278 105.914 249.215C105.944 249.155 105.965 249.107 105.979 249.07L106.074 248.785L104.064 243.83H105.509L106.749 247.2L108.004 243.83H109.429L107.334 249.03C107.154 249.47 106.964 249.807 106.764 250.04C106.564 250.273 106.347 250.433 106.114 250.52C105.884 250.607 105.634 250.65 105.364 250.65ZM109.228 249L111.818 241.77H113.358L115.943 249H114.488L113.898 247.325H111.298L110.693 249H109.228ZM111.623 246.05H113.548L112.593 243.18L111.623 246.05ZM117.029 249V241.77H119.689C120.215 241.77 120.687 241.862 121.104 242.045C121.52 242.225 121.849 242.492 122.089 242.845C122.332 243.198 122.454 243.63 122.454 244.14C122.454 244.62 122.347 245.03 122.134 245.37C121.92 245.71 121.62 245.97 121.234 246.15C120.85 246.33 120.399 246.42 119.879 246.42H118.499V249H117.029ZM118.484 245.29H119.839C120.205 245.29 120.505 245.173 120.739 244.94C120.972 244.703 121.089 244.412 121.089 244.065C121.089 243.705 120.965 243.42 120.719 243.21C120.472 242.997 120.172 242.89 119.819 242.89H118.484V245.29ZM123.552 241.77H125.007V249H123.552V241.77Z" fill="#BA4270"/>
<path opacity="0.5" d="M239.609 247.295C239.609 247.678 239.566 248.005 239.479 248.275C239.392 248.545 239.237 248.75 239.014 248.89C238.794 249.03 238.481 249.1 238.074 249.1C237.817 249.1 237.576 249.07 237.349 249.01C237.126 248.95 236.977 248.905 236.904 248.875L236.969 247.99C237.072 248.027 237.191 248.073 237.324 248.13C237.461 248.183 237.629 248.21 237.829 248.21C238.156 248.21 238.379 248.12 238.499 247.94C238.622 247.76 238.684 247.457 238.684 247.03V241.77H239.609V247.295ZM243.041 249.1C242.771 249.097 242.516 249.058 242.276 248.985C242.039 248.908 241.829 248.797 241.646 248.65C241.462 248.503 241.317 248.322 241.211 248.105C241.107 247.885 241.056 247.63 241.056 247.34V243.83H241.981V247.245C241.981 247.582 242.084 247.855 242.291 248.065C242.501 248.275 242.816 248.38 243.236 248.38C243.616 248.38 243.921 248.282 244.151 248.085C244.384 247.885 244.501 247.588 244.501 247.195V243.83H245.421V249H244.686L244.591 248.01C244.527 248.27 244.419 248.48 244.266 248.64C244.116 248.8 243.934 248.918 243.721 248.995C243.511 249.068 243.284 249.103 243.041 249.1ZM248.698 249.1C248.338 249.1 248.003 249.045 247.693 248.935C247.387 248.822 247.132 248.647 246.928 248.41C246.725 248.17 246.597 247.865 246.543 247.495H247.383C247.43 247.698 247.513 247.868 247.633 248.005C247.757 248.138 247.91 248.24 248.093 248.31C248.277 248.377 248.477 248.41 248.693 248.41C249.04 248.41 249.32 248.345 249.533 248.215C249.747 248.085 249.853 247.885 249.853 247.615C249.853 247.425 249.797 247.273 249.683 247.16C249.573 247.043 249.402 246.958 249.168 246.905L248.098 246.64C247.682 246.54 247.348 246.383 247.098 246.17C246.848 245.957 246.723 245.658 246.723 245.275C246.72 244.972 246.792 244.705 246.938 244.475C247.085 244.245 247.305 244.063 247.598 243.93C247.892 243.797 248.257 243.73 248.693 243.73C249.253 243.73 249.705 243.857 250.048 244.11C250.395 244.36 250.575 244.728 250.588 245.215H249.773C249.74 244.968 249.628 244.773 249.438 244.63C249.252 244.483 249 244.41 248.683 244.41C248.353 244.41 248.085 244.477 247.878 244.61C247.672 244.74 247.568 244.943 247.568 245.22C247.568 245.403 247.642 245.548 247.788 245.655C247.935 245.758 248.152 245.845 248.438 245.915L249.473 246.175C249.713 246.238 249.91 246.322 250.063 246.425C250.22 246.528 250.343 246.643 250.433 246.77C250.527 246.897 250.592 247.03 250.628 247.17C250.668 247.307 250.688 247.438 250.688 247.565C250.688 247.882 250.608 248.155 250.448 248.385C250.292 248.612 250.065 248.788 249.768 248.915C249.475 249.038 249.118 249.1 248.698 249.1ZM254.5 244.505H253.335V247.72C253.335 247.903 253.353 248.038 253.39 248.125C253.43 248.208 253.495 248.262 253.585 248.285C253.678 248.308 253.805 248.32 253.965 248.32H254.53V248.94C254.466 248.963 254.37 248.983 254.24 249C254.113 249.017 253.955 249.025 253.765 249.025C253.408 249.025 253.131 248.977 252.935 248.88C252.738 248.783 252.6 248.64 252.52 248.45C252.443 248.26 252.405 248.027 252.405 247.75V244.505H251.565V243.83H252.43L252.655 242.325H253.335V243.825H254.5V244.505ZM263.028 241.77H263.953V249H263.128L259.248 243.3V249H258.323V241.77H259.208L263.028 247.39V241.77ZM267.659 249.1C267.182 249.1 266.765 248.998 266.409 248.795C266.052 248.588 265.775 248.287 265.579 247.89C265.382 247.493 265.284 247.008 265.284 246.435C265.284 245.895 265.375 245.422 265.559 245.015C265.742 244.608 266.01 244.293 266.364 244.07C266.72 243.843 267.152 243.73 267.659 243.73C268.135 243.73 268.549 243.835 268.899 244.045C269.252 244.252 269.525 244.557 269.719 244.96C269.912 245.363 270.009 245.855 270.009 246.435C270.009 246.962 269.919 247.425 269.739 247.825C269.562 248.225 269.299 248.538 268.949 248.765C268.602 248.988 268.172 249.1 267.659 249.1ZM267.659 248.37C267.969 248.37 268.23 248.292 268.444 248.135C268.657 247.978 268.819 247.753 268.929 247.46C269.039 247.167 269.094 246.818 269.094 246.415C269.094 246.045 269.045 245.713 268.949 245.42C268.852 245.123 268.697 244.888 268.484 244.715C268.274 244.542 267.999 244.455 267.659 244.455C267.345 244.455 267.08 244.533 266.864 244.69C266.647 244.843 266.482 245.067 266.369 245.36C266.259 245.653 266.204 246.005 266.204 246.415C266.204 246.778 266.254 247.108 266.354 247.405C266.454 247.702 266.61 247.937 266.824 248.11C267.037 248.283 267.315 248.37 267.659 248.37ZM277.833 243.83L276.268 249H275.358L274.178 245.185L273.058 249H272.153L270.558 243.83H271.413L272.598 247.805H272.678L273.843 243.83H274.543L275.753 247.795H275.833L276.968 243.83H277.833Z" fill="#36536B"/>
</g>
<path d="M92.23 258.62V257.77H97.7V258.62H95.495V265H94.565V258.62H92.23ZM98.7025 265V257.57H99.6025V260.59C99.6892 260.447 99.8058 260.313 99.9525 260.19C100.099 260.063 100.278 259.962 100.488 259.885C100.698 259.805 100.941 259.765 101.218 259.765C101.554 259.765 101.859 259.828 102.133 259.955C102.406 260.078 102.623 260.255 102.783 260.485C102.943 260.715 103.023 260.988 103.023 261.305V265H102.098V261.49C102.098 261.18 101.991 260.942 101.778 260.775C101.568 260.605 101.293 260.52 100.953 260.52C100.723 260.52 100.506 260.558 100.303 260.635C100.099 260.708 99.9342 260.822 99.8075 260.975C99.6842 261.125 99.6225 261.317 99.6225 261.55V265H98.7025ZM105.124 262.63C105.124 262.957 105.178 263.253 105.284 263.52C105.394 263.783 105.559 263.993 105.779 264.15C106.003 264.307 106.281 264.385 106.614 264.385C106.944 264.385 107.228 264.308 107.464 264.155C107.704 264.002 107.858 263.78 107.924 263.49H108.799C108.736 263.84 108.596 264.135 108.379 264.375C108.163 264.615 107.901 264.797 107.594 264.92C107.288 265.04 106.968 265.1 106.634 265.1C106.151 265.1 105.726 264.995 105.359 264.785C104.993 264.575 104.706 264.273 104.499 263.88C104.293 263.487 104.189 263.015 104.189 262.465C104.189 261.922 104.283 261.445 104.469 261.035C104.656 260.625 104.926 260.305 105.279 260.075C105.636 259.845 106.064 259.73 106.564 259.73C107.051 259.73 107.463 259.835 107.799 260.045C108.136 260.255 108.391 260.552 108.564 260.935C108.741 261.315 108.829 261.767 108.829 262.29V262.63H105.124ZM105.129 262.005H107.939C107.939 261.708 107.889 261.442 107.789 261.205C107.689 260.965 107.536 260.777 107.329 260.64C107.126 260.5 106.869 260.43 106.559 260.43C106.236 260.43 105.968 260.508 105.754 260.665C105.544 260.818 105.386 261.017 105.279 261.26C105.176 261.5 105.126 261.748 105.129 262.005ZM112.335 266.61V259.83H113.255L113.265 260.73C113.325 260.623 113.402 260.512 113.495 260.395C113.592 260.278 113.709 260.17 113.845 260.07C113.985 259.97 114.147 259.888 114.33 259.825C114.517 259.762 114.729 259.73 114.965 259.73C115.379 259.73 115.742 259.825 116.055 260.015C116.372 260.202 116.619 260.488 116.795 260.875C116.972 261.262 117.06 261.752 117.06 262.345C117.06 262.938 116.974 263.44 116.8 263.85C116.63 264.257 116.384 264.567 116.06 264.78C115.737 264.993 115.347 265.1 114.89 265.1C114.66 265.1 114.455 265.067 114.275 265C114.099 264.937 113.944 264.853 113.81 264.75C113.68 264.643 113.57 264.53 113.48 264.41C113.394 264.29 113.322 264.175 113.265 264.065V266.61H112.335ZM114.715 264.38C115.142 264.38 115.49 264.218 115.76 263.895C116.03 263.568 116.165 263.062 116.165 262.375C116.165 261.785 116.042 261.317 115.795 260.97C115.549 260.623 115.189 260.45 114.715 260.45C114.235 260.45 113.872 260.628 113.625 260.985C113.379 261.338 113.255 261.802 113.255 262.375C113.255 262.745 113.31 263.082 113.42 263.385C113.53 263.688 113.694 263.93 113.91 264.11C114.127 264.29 114.395 264.38 114.715 264.38ZM119.634 265.1C119.301 265.1 119.006 265.042 118.749 264.925C118.493 264.805 118.291 264.633 118.144 264.41C118.001 264.187 117.929 263.917 117.929 263.6C117.929 263.027 118.129 262.6 118.529 262.32C118.929 262.04 119.571 261.89 120.454 261.87L121.379 261.845V261.44C121.379 261.123 121.284 260.873 121.094 260.69C120.904 260.503 120.609 260.41 120.209 260.41C119.913 260.413 119.651 260.483 119.424 260.62C119.201 260.757 119.056 260.98 118.989 261.29H118.174C118.194 260.953 118.289 260.67 118.459 260.44C118.629 260.207 118.866 260.03 119.169 259.91C119.476 259.79 119.838 259.73 120.254 259.73C120.704 259.73 121.078 259.793 121.374 259.92C121.674 260.047 121.898 260.233 122.044 260.48C122.194 260.727 122.269 261.03 122.269 261.39V265H121.479L121.414 264.03C121.214 264.433 120.959 264.713 120.649 264.87C120.343 265.023 120.004 265.1 119.634 265.1ZM119.914 264.435C120.088 264.435 120.259 264.403 120.429 264.34C120.603 264.277 120.761 264.192 120.904 264.085C121.048 263.975 121.161 263.853 121.244 263.72C121.331 263.583 121.376 263.443 121.379 263.3V262.415L120.609 262.43C120.216 262.437 119.886 262.477 119.619 262.55C119.356 262.623 119.158 262.738 119.024 262.895C118.894 263.052 118.829 263.257 118.829 263.51C118.829 263.8 118.929 264.027 119.129 264.19C119.333 264.353 119.594 264.435 119.914 264.435ZM124.193 266.65C123.89 266.65 123.681 266.628 123.568 266.585C123.455 266.542 123.398 266.52 123.398 266.52V265.92L123.923 265.93C124.116 265.937 124.276 265.923 124.403 265.89C124.53 265.857 124.631 265.812 124.708 265.755C124.785 265.698 124.843 265.635 124.883 265.565C124.926 265.495 124.961 265.428 124.988 265.365L125.168 264.875L123.148 259.83H124.083L125.608 263.82L127.123 259.83H128.028L125.848 265.39C125.715 265.717 125.565 265.972 125.398 266.155C125.235 266.338 125.051 266.467 124.848 266.54C124.648 266.613 124.43 266.65 124.193 266.65ZM129.015 265V259.83H129.905V260.58C130.048 260.353 130.245 260.155 130.495 259.985C130.745 259.815 131.07 259.73 131.47 259.73C131.657 259.73 131.847 259.762 132.04 259.825C132.237 259.888 132.417 259.983 132.58 260.11C132.743 260.237 132.87 260.392 132.96 260.575C133.12 260.322 133.337 260.118 133.61 259.965C133.883 259.808 134.192 259.73 134.535 259.73C134.715 259.73 134.903 259.758 135.1 259.815C135.297 259.868 135.478 259.965 135.645 260.105C135.815 260.242 135.953 260.433 136.06 260.68C136.167 260.923 136.22 261.237 136.22 261.62V265H135.29V261.71C135.29 261.397 135.24 261.155 135.14 260.985C135.04 260.812 134.908 260.69 134.745 260.62C134.585 260.55 134.413 260.515 134.23 260.515C134.07 260.515 133.9 260.547 133.72 260.61C133.54 260.673 133.387 260.78 133.26 260.93C133.133 261.08 133.07 261.285 133.07 261.545V265H132.15V261.44C132.15 261.237 132.095 261.067 131.985 260.93C131.878 260.793 131.743 260.69 131.58 260.62C131.42 260.55 131.26 260.515 131.1 260.515C130.923 260.515 130.745 260.55 130.565 260.62C130.388 260.69 130.238 260.802 130.115 260.955C129.995 261.105 129.935 261.302 129.935 261.545V265H129.015ZM138.327 262.63C138.327 262.957 138.381 263.253 138.487 263.52C138.597 263.783 138.762 263.993 138.982 264.15C139.206 264.307 139.484 264.385 139.817 264.385C140.147 264.385 140.431 264.308 140.667 264.155C140.907 264.002 141.061 263.78 141.127 263.49H142.002C141.939 263.84 141.799 264.135 141.582 264.375C141.366 264.615 141.104 264.797 140.797 264.92C140.491 265.04 140.171 265.1 139.837 265.1C139.354 265.1 138.929 264.995 138.562 264.785C138.196 264.575 137.909 264.273 137.702 263.88C137.496 263.487 137.392 263.015 137.392 262.465C137.392 261.922 137.486 261.445 137.672 261.035C137.859 260.625 138.129 260.305 138.482 260.075C138.839 259.845 139.267 259.73 139.767 259.73C140.254 259.73 140.666 259.835 141.002 260.045C141.339 260.255 141.594 260.552 141.767 260.935C141.944 261.315 142.032 261.767 142.032 262.29V262.63H138.327ZM138.332 262.005H141.142C141.142 261.708 141.092 261.442 140.992 261.205C140.892 260.965 140.739 260.777 140.532 260.64C140.329 260.5 140.072 260.43 139.762 260.43C139.439 260.43 139.171 260.508 138.957 260.665C138.747 260.818 138.589 261.017 138.482 261.26C138.379 261.5 138.329 261.748 138.332 262.005ZM143.302 265V259.83H144.197V260.58C144.28 260.437 144.395 260.302 144.542 260.175C144.692 260.048 144.872 259.947 145.082 259.87C145.295 259.793 145.54 259.755 145.817 259.755C146.144 259.755 146.444 259.82 146.717 259.95C146.994 260.08 147.214 260.283 147.377 260.56C147.544 260.833 147.627 261.187 147.627 261.62V265H146.702V261.71C146.702 261.307 146.595 261.008 146.382 260.815C146.172 260.618 145.899 260.52 145.562 260.52C145.329 260.52 145.11 260.558 144.907 260.635C144.704 260.708 144.539 260.822 144.412 260.975C144.285 261.125 144.222 261.315 144.222 261.545V265H143.302ZM151.456 260.505H150.291V263.72C150.291 263.903 150.309 264.038 150.346 264.125C150.386 264.208 150.451 264.262 150.541 264.285C150.634 264.308 150.761 264.32 150.921 264.32H151.486V264.94C151.423 264.963 151.326 264.983 151.196 265C151.069 265.017 150.911 265.025 150.721 265.025C150.364 265.025 150.088 264.977 149.891 264.88C149.694 264.783 149.556 264.64 149.476 264.45C149.399 264.26 149.361 264.027 149.361 263.75V260.505H148.521V259.83H149.386L149.611 258.325H150.291V259.825H151.456V260.505ZM155.089 265V257.57H155.989V260.59C156.076 260.447 156.193 260.313 156.339 260.19C156.486 260.063 156.664 259.962 156.874 259.885C157.084 259.805 157.328 259.765 157.604 259.765C157.941 259.765 158.246 259.828 158.519 259.955C158.793 260.078 159.009 260.255 159.169 260.485C159.329 260.715 159.409 260.988 159.409 261.305V265H158.484V261.49C158.484 261.18 158.378 260.942 158.164 260.775C157.954 260.605 157.679 260.52 157.339 260.52C157.109 260.52 156.893 260.558 156.689 260.635C156.486 260.708 156.321 260.822 156.194 260.975C156.071 261.125 156.009 261.317 156.009 261.55V265H155.089ZM162.261 265.1C161.928 265.1 161.633 265.042 161.376 264.925C161.12 264.805 160.918 264.633 160.771 264.41C160.628 264.187 160.556 263.917 160.556 263.6C160.556 263.027 160.756 262.6 161.156 262.32C161.556 262.04 162.198 261.89 163.081 261.87L164.006 261.845V261.44C164.006 261.123 163.911 260.873 163.721 260.69C163.531 260.503 163.236 260.41 162.836 260.41C162.54 260.413 162.278 260.483 162.051 260.62C161.828 260.757 161.683 260.98 161.616 261.29H160.801C160.821 260.953 160.916 260.67 161.086 260.44C161.256 260.207 161.493 260.03 161.796 259.91C162.103 259.79 162.465 259.73 162.881 259.73C163.331 259.73 163.705 259.793 164.001 259.92C164.301 260.047 164.525 260.233 164.671 260.48C164.821 260.727 164.896 261.03 164.896 261.39V265H164.106L164.041 264.03C163.841 264.433 163.586 264.713 163.276 264.87C162.97 265.023 162.631 265.1 162.261 265.1ZM162.541 264.435C162.715 264.435 162.886 264.403 163.056 264.34C163.23 264.277 163.388 264.192 163.531 264.085C163.675 263.975 163.788 263.853 163.871 263.72C163.958 263.583 164.003 263.443 164.006 263.3V262.415L163.236 262.43C162.843 262.437 162.513 262.477 162.246 262.55C161.983 262.623 161.785 262.738 161.651 262.895C161.521 263.052 161.456 263.257 161.456 263.51C161.456 263.8 161.556 264.027 161.756 264.19C161.96 264.353 162.221 264.435 162.541 264.435ZM168.223 265.1C167.863 265.1 167.528 265.045 167.218 264.935C166.911 264.822 166.656 264.647 166.453 264.41C166.25 264.17 166.121 263.865 166.068 263.495H166.908C166.955 263.698 167.038 263.868 167.158 264.005C167.281 264.138 167.435 264.24 167.618 264.31C167.801 264.377 168.001 264.41 168.218 264.41C168.565 264.41 168.845 264.345 169.058 264.215C169.271 264.085 169.378 263.885 169.378 263.615C169.378 263.425 169.321 263.273 169.208 263.16C169.098 263.043 168.926 262.958 168.693 262.905L167.623 262.64C167.206 262.54 166.873 262.383 166.623 262.17C166.373 261.957 166.248 261.658 166.248 261.275C166.245 260.972 166.316 260.705 166.463 260.475C166.61 260.245 166.83 260.063 167.123 259.93C167.416 259.797 167.781 259.73 168.218 259.73C168.778 259.73 169.23 259.857 169.573 260.11C169.92 260.36 170.1 260.728 170.113 261.215H169.298C169.265 260.968 169.153 260.773 168.963 260.63C168.776 260.483 168.525 260.41 168.208 260.41C167.878 260.41 167.61 260.477 167.403 260.61C167.196 260.74 167.093 260.943 167.093 261.22C167.093 261.403 167.166 261.548 167.313 261.655C167.46 261.758 167.676 261.845 167.963 261.915L168.998 262.175C169.238 262.238 169.435 262.322 169.588 262.425C169.745 262.528 169.868 262.643 169.958 262.77C170.051 262.897 170.116 263.03 170.153 263.17C170.193 263.307 170.213 263.438 170.213 263.565C170.213 263.882 170.133 264.155 169.973 264.385C169.816 264.612 169.59 264.788 169.293 264.915C169 265.038 168.643 265.1 168.223 265.1ZM176.326 265.1C176.023 265.1 175.766 265.06 175.556 264.98C175.349 264.9 175.179 264.798 175.046 264.675C174.913 264.548 174.809 264.42 174.736 264.29C174.663 264.157 174.609 264.04 174.576 263.94L174.476 265H173.771V257.57H174.701V260.65C174.744 260.563 174.809 260.468 174.896 260.365C174.986 260.262 175.101 260.162 175.241 260.065C175.381 259.968 175.546 259.888 175.736 259.825C175.929 259.762 176.149 259.73 176.396 259.73C177.043 259.73 177.556 259.955 177.936 260.405C178.319 260.855 178.511 261.518 178.511 262.395C178.511 262.938 178.429 263.413 178.266 263.82C178.103 264.223 177.859 264.538 177.536 264.765C177.213 264.988 176.809 265.1 176.326 265.1ZM176.161 264.39C176.581 264.39 176.923 264.228 177.186 263.905C177.449 263.578 177.581 263.06 177.581 262.35C177.581 261.747 177.458 261.28 177.211 260.95C176.968 260.617 176.611 260.45 176.141 260.45C175.798 260.45 175.521 260.525 175.311 260.675C175.104 260.822 174.951 261.037 174.851 261.32C174.754 261.603 174.704 261.947 174.701 262.35C174.701 263.073 174.813 263.595 175.036 263.915C175.263 264.232 175.638 264.39 176.161 264.39ZM180.378 262.63C180.378 262.957 180.431 263.253 180.538 263.52C180.648 263.783 180.813 263.993 181.033 264.15C181.256 264.307 181.535 264.385 181.868 264.385C182.198 264.385 182.481 264.308 182.718 264.155C182.958 264.002 183.111 263.78 183.178 263.49H184.053C183.99 263.84 183.85 264.135 183.633 264.375C183.416 264.615 183.155 264.797 182.848 264.92C182.541 265.04 182.221 265.1 181.888 265.1C181.405 265.1 180.98 264.995 180.613 264.785C180.246 264.575 179.96 264.273 179.753 263.88C179.546 263.487 179.443 263.015 179.443 262.465C179.443 261.922 179.536 261.445 179.723 261.035C179.91 260.625 180.18 260.305 180.533 260.075C180.89 259.845 181.318 259.73 181.818 259.73C182.305 259.73 182.716 259.835 183.053 260.045C183.39 260.255 183.645 260.552 183.818 260.935C183.995 261.315 184.083 261.767 184.083 262.29V262.63H180.378ZM180.383 262.005H183.193C183.193 261.708 183.143 261.442 183.043 261.205C182.943 260.965 182.79 260.777 182.583 260.64C182.38 260.5 182.123 260.43 181.813 260.43C181.49 260.43 181.221 260.508 181.008 260.665C180.798 260.818 180.64 261.017 180.533 261.26C180.43 261.5 180.38 261.748 180.383 262.005ZM186.013 262.63C186.013 262.957 186.066 263.253 186.173 263.52C186.283 263.783 186.448 263.993 186.668 264.15C186.891 264.307 187.17 264.385 187.503 264.385C187.833 264.385 188.116 264.308 188.353 264.155C188.593 264.002 188.746 263.78 188.813 263.49H189.688C189.625 263.84 189.485 264.135 189.268 264.375C189.051 264.615 188.79 264.797 188.483 264.92C188.176 265.04 187.856 265.1 187.523 265.1C187.04 265.1 186.615 264.995 186.248 264.785C185.881 264.575 185.595 264.273 185.388 263.88C185.181 263.487 185.078 263.015 185.078 262.465C185.078 261.922 185.171 261.445 185.358 261.035C185.545 260.625 185.815 260.305 186.168 260.075C186.525 259.845 186.953 259.73 187.453 259.73C187.94 259.73 188.351 259.835 188.688 260.045C189.025 260.255 189.28 260.552 189.453 260.935C189.63 261.315 189.718 261.767 189.718 262.29V262.63H186.013ZM186.018 262.005H188.828C188.828 261.708 188.778 261.442 188.678 261.205C188.578 260.965 188.425 260.777 188.218 260.64C188.015 260.5 187.758 260.43 187.448 260.43C187.125 260.43 186.856 260.508 186.643 260.665C186.433 260.818 186.275 261.017 186.168 261.26C186.065 261.5 186.015 261.748 186.018 262.005ZM190.988 265V259.83H191.883V260.58C191.966 260.437 192.081 260.302 192.228 260.175C192.378 260.048 192.558 259.947 192.768 259.87C192.981 259.793 193.226 259.755 193.503 259.755C193.829 259.755 194.129 259.82 194.403 259.95C194.679 260.08 194.899 260.283 195.063 260.56C195.229 260.833 195.313 261.187 195.313 261.62V265H194.388V261.71C194.388 261.307 194.281 261.008 194.068 260.815C193.858 260.618 193.584 260.52 193.248 260.52C193.014 260.52 192.796 260.558 192.593 260.635C192.389 260.708 192.224 260.822 192.098 260.975C191.971 261.125 191.908 261.315 191.908 261.545V265H190.988ZM199.064 266.61V259.83H199.984L199.994 260.73C200.054 260.623 200.13 260.512 200.224 260.395C200.32 260.278 200.437 260.17 200.574 260.07C200.714 259.97 200.875 259.888 201.059 259.825C201.245 259.762 201.457 259.73 201.694 259.73C202.107 259.73 202.47 259.825 202.784 260.015C203.1 260.202 203.347 260.488 203.524 260.875C203.7 261.262 203.789 261.752 203.789 262.345C203.789 262.938 203.702 263.44 203.529 263.85C203.359 264.257 203.112 264.567 202.789 264.78C202.465 264.993 202.075 265.1 201.619 265.1C201.389 265.1 201.184 265.067 201.004 265C200.827 264.937 200.672 264.853 200.539 264.75C200.409 264.643 200.299 264.53 200.209 264.41C200.122 264.29 200.05 264.175 199.994 264.065V266.61H199.064ZM201.444 264.38C201.87 264.38 202.219 264.218 202.489 263.895C202.759 263.568 202.894 263.062 202.894 262.375C202.894 261.785 202.77 261.317 202.524 260.97C202.277 260.623 201.917 260.45 201.444 260.45C200.964 260.45 200.6 260.628 200.354 260.985C200.107 261.338 199.984 261.802 199.984 262.375C199.984 262.745 200.039 263.082 200.149 263.385C200.259 263.688 200.422 263.93 200.639 264.11C200.855 264.29 201.124 264.38 201.444 264.38ZM205.001 265V259.83H205.881V260.825C205.968 260.578 206.09 260.375 206.246 260.215C206.403 260.052 206.581 259.93 206.781 259.85C206.985 259.77 207.195 259.73 207.411 259.73C207.488 259.73 207.563 259.735 207.636 259.745C207.71 259.755 207.766 259.772 207.806 259.795V260.69C207.756 260.667 207.691 260.652 207.611 260.645C207.535 260.635 207.47 260.63 207.416 260.63C207.21 260.617 207.016 260.63 206.836 260.67C206.656 260.707 206.498 260.772 206.361 260.865C206.225 260.958 206.116 261.082 206.036 261.235C205.96 261.385 205.921 261.568 205.921 261.785V265H205.001ZM210.816 265.1C210.339 265.1 209.923 264.998 209.566 264.795C209.209 264.588 208.933 264.287 208.736 263.89C208.539 263.493 208.441 263.008 208.441 262.435C208.441 261.895 208.533 261.422 208.716 261.015C208.899 260.608 209.168 260.293 209.521 260.07C209.878 259.843 210.309 259.73 210.816 259.73C211.293 259.73 211.706 259.835 212.056 260.045C212.409 260.252 212.683 260.557 212.876 260.96C213.069 261.363 213.166 261.855 213.166 262.435C213.166 262.962 213.076 263.425 212.896 263.825C212.719 264.225 212.456 264.538 212.106 264.765C211.759 264.988 211.329 265.1 210.816 265.1ZM210.816 264.37C211.126 264.37 211.388 264.292 211.601 264.135C211.814 263.978 211.976 263.753 212.086 263.46C212.196 263.167 212.251 262.818 212.251 262.415C212.251 262.045 212.203 261.713 212.106 261.42C212.009 261.123 211.854 260.888 211.641 260.715C211.431 260.542 211.156 260.455 210.816 260.455C210.503 260.455 210.238 260.533 210.021 260.69C209.804 260.843 209.639 261.067 209.526 261.36C209.416 261.653 209.361 262.005 209.361 262.415C209.361 262.778 209.411 263.108 209.511 263.405C209.611 263.702 209.768 263.937 209.981 264.11C210.194 264.283 210.473 264.37 210.816 264.37ZM216.436 259.73C216.806 259.73 217.14 259.802 217.436 259.945C217.733 260.085 217.975 260.285 218.161 260.545C218.351 260.805 218.47 261.112 218.516 261.465H217.696C217.666 261.285 217.596 261.12 217.486 260.97C217.38 260.82 217.238 260.7 217.061 260.61C216.885 260.52 216.678 260.475 216.441 260.475C215.998 260.475 215.638 260.635 215.361 260.955C215.085 261.275 214.946 261.765 214.946 262.425C214.946 263.022 215.073 263.5 215.326 263.86C215.583 264.217 215.96 264.395 216.456 264.395C216.693 264.395 216.898 264.35 217.071 264.26C217.248 264.167 217.39 264.045 217.496 263.895C217.603 263.742 217.671 263.578 217.701 263.405H218.506C218.463 263.752 218.346 264.052 218.156 264.305C217.966 264.558 217.723 264.755 217.426 264.895C217.133 265.032 216.803 265.1 216.436 265.1C215.973 265.1 215.561 264.998 215.201 264.795C214.845 264.592 214.565 264.292 214.361 263.895C214.158 263.498 214.056 263.012 214.056 262.435C214.056 261.895 214.148 261.423 214.331 261.02C214.518 260.613 214.788 260.297 215.141 260.07C215.498 259.843 215.93 259.73 216.436 259.73ZM220.427 262.63C220.427 262.957 220.48 263.253 220.587 263.52C220.697 263.783 220.862 263.993 221.082 264.15C221.305 264.307 221.584 264.385 221.917 264.385C222.247 264.385 222.53 264.308 222.767 264.155C223.007 264.002 223.16 263.78 223.227 263.49H224.102C224.039 263.84 223.899 264.135 223.682 264.375C223.465 264.615 223.204 264.797 222.897 264.92C222.59 265.04 222.27 265.1 221.937 265.1C221.454 265.1 221.029 264.995 220.662 264.785C220.295 264.575 220.009 264.273 219.802 263.88C219.595 263.487 219.492 263.015 219.492 262.465C219.492 261.922 219.585 261.445 219.772 261.035C219.959 260.625 220.229 260.305 220.582 260.075C220.939 259.845 221.367 259.73 221.867 259.73C222.354 259.73 222.765 259.835 223.102 260.045C223.439 260.255 223.694 260.552 223.867 260.935C224.044 261.315 224.132 261.767 224.132 262.29V262.63H220.427ZM220.432 262.005H223.242C223.242 261.708 223.192 261.442 223.092 261.205C222.992 260.965 222.839 260.777 222.632 260.64C222.429 260.5 222.172 260.43 221.862 260.43C221.539 260.43 221.27 260.508 221.057 260.665C220.847 260.818 220.689 261.017 220.582 261.26C220.479 261.5 220.429 261.748 220.432 262.005ZM227.198 265.1C226.838 265.1 226.503 265.045 226.193 264.935C225.886 264.822 225.631 264.647 225.428 264.41C225.224 264.17 225.096 263.865 225.043 263.495H225.883C225.929 263.698 226.013 263.868 226.133 264.005C226.256 264.138 226.409 264.24 226.593 264.31C226.776 264.377 226.976 264.41 227.193 264.41C227.539 264.41 227.819 264.345 228.033 264.215C228.246 264.085 228.353 263.885 228.353 263.615C228.353 263.425 228.296 263.273 228.183 263.16C228.073 263.043 227.901 262.958 227.668 262.905L226.598 262.64C226.181 262.54 225.848 262.383 225.598 262.17C225.348 261.957 225.223 261.658 225.223 261.275C225.219 260.972 225.291 260.705 225.438 260.475C225.584 260.245 225.804 260.063 226.098 259.93C226.391 259.797 226.756 259.73 227.193 259.73C227.753 259.73 228.204 259.857 228.548 260.11C228.894 260.36 229.074 260.728 229.088 261.215H228.273C228.239 260.968 228.128 260.773 227.938 260.63C227.751 260.483 227.499 260.41 227.183 260.41C226.853 260.41 226.584 260.477 226.378 260.61C226.171 260.74 226.068 260.943 226.068 261.22C226.068 261.403 226.141 261.548 226.288 261.655C226.434 261.758 226.651 261.845 226.938 261.915L227.973 262.175C228.213 262.238 228.409 262.322 228.563 262.425C228.719 262.528 228.843 262.643 228.933 262.77C229.026 262.897 229.091 263.03 229.128 263.17C229.168 263.307 229.188 263.438 229.188 263.565C229.188 263.882 229.108 264.155 228.948 264.385C228.791 264.612 228.564 264.788 228.268 264.915C227.974 265.038 227.618 265.1 227.198 265.1ZM232.227 265.1C231.867 265.1 231.532 265.045 231.222 264.935C230.915 264.822 230.66 264.647 230.457 264.41C230.254 264.17 230.125 263.865 230.072 263.495H230.912C230.959 263.698 231.042 263.868 231.162 264.005C231.285 264.138 231.439 264.24 231.622 264.31C231.805 264.377 232.005 264.41 232.222 264.41C232.569 264.41 232.849 264.345 233.062 264.215C233.275 264.085 233.382 263.885 233.382 263.615C233.382 263.425 233.325 263.273 233.212 263.16C233.102 263.043 232.93 262.958 232.697 262.905L231.627 262.64C231.21 262.54 230.877 262.383 230.627 262.17C230.377 261.957 230.252 261.658 230.252 261.275C230.249 260.972 230.32 260.705 230.467 260.475C230.614 260.245 230.834 260.063 231.127 259.93C231.42 259.797 231.785 259.73 232.222 259.73C232.782 259.73 233.234 259.857 233.577 260.11C233.924 260.36 234.104 260.728 234.117 261.215H233.302C233.269 260.968 233.157 260.773 232.967 260.63C232.78 260.483 232.529 260.41 232.212 260.41C231.882 260.41 231.614 260.477 231.407 260.61C231.2 260.74 231.097 260.943 231.097 261.22C231.097 261.403 231.17 261.548 231.317 261.655C231.464 261.758 231.68 261.845 231.967 261.915L233.002 262.175C233.242 262.238 233.439 262.322 233.592 262.425C233.749 262.528 233.872 262.643 233.962 262.77C234.055 262.897 234.12 263.03 234.157 263.17C234.197 263.307 234.217 263.438 234.217 263.565C234.217 263.882 234.137 264.155 233.977 264.385C233.82 264.612 233.594 264.788 233.297 264.915C233.004 265.038 232.647 265.1 232.227 265.1ZM236.169 262.63C236.169 262.957 236.222 263.253 236.329 263.52C236.439 263.783 236.604 263.993 236.824 264.15C237.047 264.307 237.326 264.385 237.659 264.385C237.989 264.385 238.272 264.308 238.509 264.155C238.749 264.002 238.902 263.78 238.969 263.49H239.844C239.781 263.84 239.641 264.135 239.424 264.375C239.207 264.615 238.946 264.797 238.639 264.92C238.332 265.04 238.012 265.1 237.679 265.1C237.196 265.1 236.771 264.995 236.404 264.785C236.037 264.575 235.751 264.273 235.544 263.88C235.337 263.487 235.234 263.015 235.234 262.465C235.234 261.922 235.327 261.445 235.514 261.035C235.701 260.625 235.971 260.305 236.324 260.075C236.681 259.845 237.109 259.73 237.609 259.73C238.096 259.73 238.507 259.835 238.844 260.045C239.181 260.255 239.436 260.552 239.609 260.935C239.786 261.315 239.874 261.767 239.874 262.29V262.63H236.169ZM236.174 262.005H238.984C238.984 261.708 238.934 261.442 238.834 261.205C238.734 260.965 238.581 260.777 238.374 260.64C238.171 260.5 237.914 260.43 237.604 260.43C237.281 260.43 237.012 260.508 236.799 260.665C236.589 260.818 236.431 261.017 236.324 261.26C236.221 261.5 236.171 261.748 236.174 262.005ZM243.009 265.1C242.339 265.1 241.807 264.87 241.414 264.41C241.021 263.95 240.824 263.278 240.824 262.395C240.824 261.858 240.902 261.39 241.059 260.99C241.219 260.59 241.456 260.28 241.769 260.06C242.082 259.84 242.472 259.73 242.939 259.73C243.186 259.73 243.404 259.762 243.594 259.825C243.787 259.888 243.954 259.968 244.094 260.065C244.234 260.162 244.347 260.262 244.434 260.365C244.524 260.468 244.591 260.563 244.634 260.65V257.57H245.564V265H244.859L244.759 263.94C244.726 264.04 244.672 264.157 244.599 264.29C244.526 264.42 244.422 264.548 244.289 264.675C244.156 264.798 243.984 264.9 243.774 264.98C243.567 265.06 243.312 265.1 243.009 265.1ZM243.174 264.39C243.697 264.39 244.071 264.232 244.294 263.915C244.521 263.595 244.634 263.073 244.634 262.35C244.631 261.947 244.579 261.603 244.479 261.32C244.382 261.037 244.229 260.822 244.019 260.675C243.812 260.525 243.537 260.45 243.194 260.45C242.767 260.45 242.421 260.602 242.154 260.905C241.887 261.208 241.754 261.69 241.754 262.35C241.754 262.997 241.874 263.498 242.114 263.855C242.357 264.212 242.711 264.39 243.174 264.39ZM246.876 265V263.82H247.976V265H246.876ZM251.048 258.62V257.77H256.518V258.62H254.313V265H253.383V258.62H251.048ZM257.521 265V257.57H258.421V260.59C258.508 260.447 258.624 260.313 258.771 260.19C258.918 260.063 259.096 259.962 259.306 259.885C259.516 259.805 259.759 259.765 260.036 259.765C260.373 259.765 260.678 259.828 260.951 259.955C261.224 260.078 261.441 260.255 261.601 260.485C261.761 260.715 261.841 260.988 261.841 261.305V265H260.916V261.49C260.916 261.18 260.809 260.942 260.596 260.775C260.386 260.605 260.111 260.52 259.771 260.52C259.541 260.52 259.324 260.558 259.121 260.635C258.918 260.708 258.753 260.822 258.626 260.975C258.503 261.125 258.441 261.317 258.441 261.55V265H257.521ZM263.943 262.63C263.943 262.957 263.996 263.253 264.103 263.52C264.213 263.783 264.378 263.993 264.598 264.15C264.821 264.307 265.099 264.385 265.433 264.385C265.763 264.385 266.046 264.308 266.283 264.155C266.523 264.002 266.676 263.78 266.743 263.49H267.618C267.554 263.84 267.414 264.135 267.198 264.375C266.981 264.615 266.719 264.797 266.413 264.92C266.106 265.04 265.786 265.1 265.453 265.1C264.969 265.1 264.544 264.995 264.178 264.785C263.811 264.575 263.524 264.273 263.318 263.88C263.111 263.487 263.008 263.015 263.008 262.465C263.008 261.922 263.101 261.445 263.288 261.035C263.474 260.625 263.744 260.305 264.098 260.075C264.454 259.845 264.883 259.73 265.383 259.73C265.869 259.73 266.281 259.835 266.618 260.045C266.954 260.255 267.209 260.552 267.383 260.935C267.559 261.315 267.648 261.767 267.648 262.29V262.63H263.943ZM263.948 262.005H266.758C266.758 261.708 266.708 261.442 266.608 261.205C266.508 260.965 266.354 260.777 266.148 260.64C265.944 260.5 265.688 260.43 265.378 260.43C265.054 260.43 264.786 260.508 264.573 260.665C264.363 260.818 264.204 261.017 264.098 261.26C263.994 261.5 263.944 261.748 263.948 262.005ZM95.46 274.505H94.295V277.72C94.295 277.903 94.3133 278.038 94.35 278.125C94.39 278.208 94.455 278.262 94.545 278.285C94.6383 278.308 94.765 278.32 94.925 278.32H95.49V278.94C95.4267 278.963 95.33 278.983 95.2 279C95.0733 279.017 94.915 279.025 94.725 279.025C94.3683 279.025 94.0917 278.977 93.895 278.88C93.6983 278.783 93.56 278.64 93.48 278.45C93.4033 278.26 93.365 278.027 93.365 277.75V274.505H92.525V273.83H93.39L93.615 272.325H94.295V273.825H95.46V274.505ZM98.7067 279.1C98.2301 279.1 97.8134 278.998 97.4567 278.795C97.1001 278.588 96.8234 278.287 96.6267 277.89C96.4301 277.493 96.3317 277.008 96.3317 276.435C96.3317 275.895 96.4234 275.422 96.6067 275.015C96.7901 274.608 97.0584 274.293 97.4117 274.07C97.7684 273.843 98.2001 273.73 98.7067 273.73C99.1834 273.73 99.5967 273.835 99.9467 274.045C100.3 274.252 100.573 274.557 100.767 274.96C100.96 275.363 101.057 275.855 101.057 276.435C101.057 276.962 100.967 277.425 100.787 277.825C100.61 278.225 100.347 278.538 99.9967 278.765C99.6501 278.988 99.2201 279.1 98.7067 279.1ZM98.7067 278.37C99.0167 278.37 99.2784 278.292 99.4917 278.135C99.7051 277.978 99.8667 277.753 99.9767 277.46C100.087 277.167 100.142 276.818 100.142 276.415C100.142 276.045 100.093 275.713 99.9967 275.42C99.9001 275.123 99.7451 274.888 99.5317 274.715C99.3217 274.542 99.0467 274.455 98.7067 274.455C98.3934 274.455 98.1284 274.533 97.9117 274.69C97.6951 274.843 97.5301 275.067 97.4167 275.36C97.3067 275.653 97.2517 276.005 97.2517 276.415C97.2517 276.778 97.3017 277.108 97.4017 277.405C97.5017 277.702 97.6584 277.937 97.8717 278.11C98.0851 278.283 98.3634 278.37 98.7067 278.37ZM104.728 274.505H103.563V277.72C103.563 277.903 103.581 278.038 103.618 278.125C103.658 278.208 103.723 278.262 103.813 278.285C103.906 278.308 104.033 278.32 104.193 278.32H104.758V278.94C104.694 278.963 104.598 278.983 104.468 279C104.341 279.017 104.183 279.025 103.993 279.025C103.636 279.025 103.359 278.977 103.163 278.88C102.966 278.783 102.828 278.64 102.748 278.45C102.671 278.26 102.633 278.027 102.633 277.75V274.505H101.793V273.83H102.658L102.883 272.325H103.563V273.825H104.728V274.505ZM107.447 279.1C107.114 279.1 106.819 279.042 106.562 278.925C106.305 278.805 106.104 278.633 105.957 278.41C105.814 278.187 105.742 277.917 105.742 277.6C105.742 277.027 105.942 276.6 106.342 276.32C106.742 276.04 107.384 275.89 108.267 275.87L109.192 275.845V275.44C109.192 275.123 109.097 274.873 108.907 274.69C108.717 274.503 108.422 274.41 108.022 274.41C107.725 274.413 107.464 274.483 107.237 274.62C107.014 274.757 106.869 274.98 106.802 275.29H105.987C106.007 274.953 106.102 274.67 106.272 274.44C106.442 274.207 106.679 274.03 106.982 273.91C107.289 273.79 107.65 273.73 108.067 273.73C108.517 273.73 108.89 273.793 109.187 273.92C109.487 274.047 109.71 274.233 109.857 274.48C110.007 274.727 110.082 275.03 110.082 275.39V279H109.292L109.227 278.03C109.027 278.433 108.772 278.713 108.462 278.87C108.155 279.023 107.817 279.1 107.447 279.1ZM107.727 278.435C107.9 278.435 108.072 278.403 108.242 278.34C108.415 278.277 108.574 278.192 108.717 278.085C108.86 277.975 108.974 277.853 109.057 277.72C109.144 277.583 109.189 277.443 109.192 277.3V276.415L108.422 276.43C108.029 276.437 107.699 276.477 107.432 276.55C107.169 276.623 106.97 276.738 106.837 276.895C106.707 277.052 106.642 277.257 106.642 277.51C106.642 277.8 106.742 278.027 106.942 278.19C107.145 278.353 107.407 278.435 107.727 278.435ZM112.966 279.065C112.686 279.065 112.46 279.027 112.286 278.95C112.116 278.873 111.985 278.77 111.891 278.64C111.801 278.51 111.74 278.362 111.706 278.195C111.676 278.025 111.661 277.85 111.661 277.67V271.57H112.571V277.58C112.571 277.84 112.621 278.035 112.721 278.165C112.825 278.295 112.968 278.367 113.151 278.38L113.431 278.385V278.985C113.355 279.008 113.275 279.027 113.191 279.04C113.108 279.057 113.033 279.065 112.966 279.065ZM118.375 279.1C118.041 279.1 117.746 279.042 117.49 278.925C117.233 278.805 117.031 278.633 116.885 278.41C116.741 278.187 116.67 277.917 116.67 277.6C116.67 277.027 116.87 276.6 117.27 276.32C117.67 276.04 118.311 275.89 119.195 275.87L120.12 275.845V275.44C120.12 275.123 120.025 274.873 119.835 274.69C119.645 274.503 119.35 274.41 118.95 274.41C118.653 274.413 118.391 274.483 118.165 274.62C117.941 274.757 117.796 274.98 117.73 275.29H116.915C116.935 274.953 117.03 274.67 117.2 274.44C117.37 274.207 117.606 274.03 117.91 273.91C118.216 273.79 118.578 273.73 118.995 273.73C119.445 273.73 119.818 273.793 120.115 273.92C120.415 274.047 120.638 274.233 120.785 274.48C120.935 274.727 121.01 275.03 121.01 275.39V279H120.22L120.155 278.03C119.955 278.433 119.7 278.713 119.39 278.87C119.083 279.023 118.745 279.1 118.375 279.1ZM118.655 278.435C118.828 278.435 119 278.403 119.17 278.34C119.343 278.277 119.501 278.192 119.645 278.085C119.788 277.975 119.901 277.853 119.985 277.72C120.071 277.583 120.116 277.443 120.12 277.3V276.415L119.35 276.43C118.956 276.437 118.626 276.477 118.36 276.55C118.096 276.623 117.898 276.738 117.765 276.895C117.635 277.052 117.57 277.257 117.57 277.51C117.57 277.8 117.67 278.027 117.87 278.19C118.073 278.353 118.335 278.435 118.655 278.435ZM122.589 279V273.83H123.479V274.58C123.623 274.353 123.819 274.155 124.069 273.985C124.319 273.815 124.644 273.73 125.044 273.73C125.231 273.73 125.421 273.762 125.614 273.825C125.811 273.888 125.991 273.983 126.154 274.11C126.318 274.237 126.444 274.392 126.534 274.575C126.694 274.322 126.911 274.118 127.184 273.965C127.458 273.808 127.766 273.73 128.109 273.73C128.289 273.73 128.478 273.758 128.674 273.815C128.871 273.868 129.053 273.965 129.219 274.105C129.389 274.242 129.528 274.433 129.634 274.68C129.741 274.923 129.794 275.237 129.794 275.62V279H128.864V275.71C128.864 275.397 128.814 275.155 128.714 274.985C128.614 274.812 128.483 274.69 128.319 274.62C128.159 274.55 127.988 274.515 127.804 274.515C127.644 274.515 127.474 274.547 127.294 274.61C127.114 274.673 126.961 274.78 126.834 274.93C126.708 275.08 126.644 275.285 126.644 275.545V279H125.724V275.44C125.724 275.237 125.669 275.067 125.559 274.93C125.453 274.793 125.318 274.69 125.154 274.62C124.994 274.55 124.834 274.515 124.674 274.515C124.498 274.515 124.319 274.55 124.139 274.62C123.963 274.69 123.813 274.802 123.689 274.955C123.569 275.105 123.509 275.302 123.509 275.545V279H122.589ZM133.297 279.1C132.82 279.1 132.403 278.998 132.047 278.795C131.69 278.588 131.413 278.287 131.217 277.89C131.02 277.493 130.922 277.008 130.922 276.435C130.922 275.895 131.013 275.422 131.197 275.015C131.38 274.608 131.648 274.293 132.002 274.07C132.358 273.843 132.79 273.73 133.297 273.73C133.773 273.73 134.187 273.835 134.537 274.045C134.89 274.252 135.163 274.557 135.357 274.96C135.55 275.363 135.647 275.855 135.647 276.435C135.647 276.962 135.557 277.425 135.377 277.825C135.2 278.225 134.937 278.538 134.587 278.765C134.24 278.988 133.81 279.1 133.297 279.1ZM133.297 278.37C133.607 278.37 133.868 278.292 134.082 278.135C134.295 277.978 134.457 277.753 134.567 277.46C134.677 277.167 134.732 276.818 134.732 276.415C134.732 276.045 134.683 275.713 134.587 275.42C134.49 275.123 134.335 274.888 134.122 274.715C133.912 274.542 133.637 274.455 133.297 274.455C132.983 274.455 132.718 274.533 132.502 274.69C132.285 274.843 132.12 275.067 132.007 275.36C131.897 275.653 131.842 276.005 131.842 276.415C131.842 276.778 131.892 277.108 131.992 277.405C132.092 277.702 132.248 277.937 132.462 278.11C132.675 278.283 132.953 278.37 133.297 278.37ZM138.669 279.1C138.399 279.097 138.144 279.058 137.904 278.985C137.667 278.908 137.457 278.797 137.274 278.65C137.091 278.503 136.946 278.322 136.839 278.105C136.736 277.885 136.684 277.63 136.684 277.34V273.83H137.609V277.245C137.609 277.582 137.712 277.855 137.919 278.065C138.129 278.275 138.444 278.38 138.864 278.38C139.244 278.38 139.549 278.282 139.779 278.085C140.012 277.885 140.129 277.588 140.129 277.195V273.83H141.049V279H140.314L140.219 278.01C140.156 278.27 140.047 278.48 139.894 278.64C139.744 278.8 139.562 278.918 139.349 278.995C139.139 279.068 138.912 279.103 138.669 279.1ZM142.56 279V273.83H143.455V274.58C143.538 274.437 143.653 274.302 143.8 274.175C143.95 274.048 144.13 273.947 144.34 273.87C144.553 273.793 144.798 273.755 145.075 273.755C145.402 273.755 145.702 273.82 145.975 273.95C146.252 274.08 146.472 274.283 146.635 274.56C146.802 274.833 146.885 275.187 146.885 275.62V279H145.96V275.71C145.96 275.307 145.853 275.008 145.64 274.815C145.43 274.618 145.157 274.52 144.82 274.52C144.587 274.52 144.368 274.558 144.165 274.635C143.962 274.708 143.797 274.822 143.67 274.975C143.543 275.125 143.48 275.315 143.48 275.545V279H142.56ZM150.714 274.505H149.549V277.72C149.549 277.903 149.567 278.038 149.604 278.125C149.644 278.208 149.709 278.262 149.799 278.285C149.892 278.308 150.019 278.32 150.179 278.32H150.744V278.94C150.681 278.963 150.584 278.983 150.454 279C150.327 279.017 150.169 279.025 149.979 279.025C149.622 279.025 149.346 278.977 149.149 278.88C148.952 278.783 148.814 278.64 148.734 278.45C148.657 278.26 148.619 278.027 148.619 277.75V274.505H147.779V273.83H148.644L148.869 272.325H149.549V273.825H150.714V274.505ZM156.085 279.1C155.415 279.1 154.883 278.87 154.49 278.41C154.097 277.95 153.9 277.278 153.9 276.395C153.9 275.858 153.978 275.39 154.135 274.99C154.295 274.59 154.532 274.28 154.845 274.06C155.158 273.84 155.548 273.73 156.015 273.73C156.262 273.73 156.48 273.762 156.67 273.825C156.863 273.888 157.03 273.968 157.17 274.065C157.31 274.162 157.423 274.262 157.51 274.365C157.6 274.468 157.667 274.563 157.71 274.65V271.57H158.64V279H157.935L157.835 277.94C157.802 278.04 157.748 278.157 157.675 278.29C157.602 278.42 157.498 278.548 157.365 278.675C157.232 278.798 157.06 278.9 156.85 278.98C156.643 279.06 156.388 279.1 156.085 279.1ZM156.25 278.39C156.773 278.39 157.147 278.232 157.37 277.915C157.597 277.595 157.71 277.073 157.71 276.35C157.707 275.947 157.655 275.603 157.555 275.32C157.458 275.037 157.305 274.822 157.095 274.675C156.888 274.525 156.613 274.45 156.27 274.45C155.843 274.45 155.497 274.602 155.23 274.905C154.963 275.208 154.83 275.69 154.83 276.35C154.83 276.997 154.95 277.498 155.19 277.855C155.433 278.212 155.787 278.39 156.25 278.39ZM160.827 276.63C160.827 276.957 160.881 277.253 160.987 277.52C161.097 277.783 161.262 277.993 161.482 278.15C161.706 278.307 161.984 278.385 162.317 278.385C162.647 278.385 162.931 278.308 163.167 278.155C163.407 278.002 163.561 277.78 163.627 277.49H164.502C164.439 277.84 164.299 278.135 164.082 278.375C163.866 278.615 163.604 278.797 163.297 278.92C162.991 279.04 162.671 279.1 162.337 279.1C161.854 279.1 161.429 278.995 161.062 278.785C160.696 278.575 160.409 278.273 160.202 277.88C159.996 277.487 159.892 277.015 159.892 276.465C159.892 275.922 159.986 275.445 160.172 275.035C160.359 274.625 160.629 274.305 160.982 274.075C161.339 273.845 161.767 273.73 162.267 273.73C162.754 273.73 163.166 273.835 163.502 274.045C163.839 274.255 164.094 274.552 164.267 274.935C164.444 275.315 164.532 275.767 164.532 276.29V276.63H160.827ZM160.832 276.005H163.642C163.642 275.708 163.592 275.442 163.492 275.205C163.392 274.965 163.239 274.777 163.032 274.64C162.829 274.5 162.572 274.43 162.262 274.43C161.939 274.43 161.671 274.508 161.457 274.665C161.247 274.818 161.089 275.017 160.982 275.26C160.879 275.5 160.829 275.748 160.832 276.005ZM167.667 279.1C166.997 279.1 166.465 278.87 166.072 278.41C165.679 277.95 165.482 277.278 165.482 276.395C165.482 275.858 165.56 275.39 165.717 274.99C165.877 274.59 166.114 274.28 166.427 274.06C166.74 273.84 167.13 273.73 167.597 273.73C167.844 273.73 168.062 273.762 168.252 273.825C168.445 273.888 168.612 273.968 168.752 274.065C168.892 274.162 169.005 274.262 169.092 274.365C169.182 274.468 169.249 274.563 169.292 274.65V271.57H170.222V279H169.517L169.417 277.94C169.384 278.04 169.33 278.157 169.257 278.29C169.184 278.42 169.08 278.548 168.947 278.675C168.814 278.798 168.642 278.9 168.432 278.98C168.225 279.06 167.97 279.1 167.667 279.1ZM167.832 278.39C168.355 278.39 168.729 278.232 168.952 277.915C169.179 277.595 169.292 277.073 169.292 276.35C169.289 275.947 169.237 275.603 169.137 275.32C169.04 275.037 168.887 274.822 168.677 274.675C168.47 274.525 168.195 274.45 167.852 274.45C167.425 274.45 167.079 274.602 166.812 274.905C166.545 275.208 166.412 275.69 166.412 276.35C166.412 276.997 166.532 277.498 166.772 277.855C167.015 278.212 167.369 278.39 167.832 278.39ZM173.649 279.1C173.379 279.097 173.124 279.058 172.884 278.985C172.648 278.908 172.438 278.797 172.254 278.65C172.071 278.503 171.926 278.322 171.819 278.105C171.716 277.885 171.664 277.63 171.664 277.34V273.83H172.589V277.245C172.589 277.582 172.693 277.855 172.899 278.065C173.109 278.275 173.424 278.38 173.844 278.38C174.224 278.38 174.529 278.282 174.759 278.085C174.993 277.885 175.109 277.588 175.109 277.195V273.83H176.029V279H175.294L175.199 278.01C175.136 278.27 175.028 278.48 174.874 278.64C174.724 278.8 174.543 278.918 174.329 278.995C174.119 279.068 173.893 279.103 173.649 279.1ZM179.532 273.73C179.902 273.73 180.235 273.802 180.532 273.945C180.829 274.085 181.07 274.285 181.257 274.545C181.447 274.805 181.565 275.112 181.612 275.465H180.792C180.762 275.285 180.692 275.12 180.582 274.97C180.475 274.82 180.334 274.7 180.157 274.61C179.98 274.52 179.774 274.475 179.537 274.475C179.094 274.475 178.734 274.635 178.457 274.955C178.18 275.275 178.042 275.765 178.042 276.425C178.042 277.022 178.169 277.5 178.422 277.86C178.679 278.217 179.055 278.395 179.552 278.395C179.789 278.395 179.994 278.35 180.167 278.26C180.344 278.167 180.485 278.045 180.592 277.895C180.699 277.742 180.767 277.578 180.797 277.405H181.602C181.559 277.752 181.442 278.052 181.252 278.305C181.062 278.558 180.819 278.755 180.522 278.895C180.229 279.032 179.899 279.1 179.532 279.1C179.069 279.1 178.657 278.998 178.297 278.795C177.94 278.592 177.66 278.292 177.457 277.895C177.254 277.498 177.152 277.012 177.152 276.435C177.152 275.895 177.244 275.423 177.427 275.02C177.614 274.613 177.884 274.297 178.237 274.07C178.594 273.843 179.025 273.73 179.532 273.73ZM185.323 274.505H184.158V277.72C184.158 277.903 184.177 278.038 184.213 278.125C184.253 278.208 184.318 278.262 184.408 278.285C184.502 278.308 184.628 278.32 184.788 278.32H185.353V278.94C185.29 278.963 185.193 278.983 185.063 279C184.937 279.017 184.778 279.025 184.588 279.025C184.232 279.025 183.955 278.977 183.758 278.88C183.562 278.783 183.423 278.64 183.343 278.45C183.267 278.26 183.228 278.027 183.228 277.75V274.505H182.388V273.83H183.253L183.478 272.325H184.158V273.825H185.323V274.505ZM187.175 276.63C187.175 276.957 187.228 277.253 187.335 277.52C187.445 277.783 187.61 277.993 187.83 278.15C188.053 278.307 188.332 278.385 188.665 278.385C188.995 278.385 189.278 278.308 189.515 278.155C189.755 278.002 189.908 277.78 189.975 277.49H190.85C190.787 277.84 190.647 278.135 190.43 278.375C190.213 278.615 189.952 278.797 189.645 278.92C189.338 279.04 189.018 279.1 188.685 279.1C188.202 279.1 187.777 278.995 187.41 278.785C187.043 278.575 186.757 278.273 186.55 277.88C186.343 277.487 186.24 277.015 186.24 276.465C186.24 275.922 186.333 275.445 186.52 275.035C186.707 274.625 186.977 274.305 187.33 274.075C187.687 273.845 188.115 273.73 188.615 273.73C189.102 273.73 189.513 273.835 189.85 274.045C190.187 274.255 190.442 274.552 190.615 274.935C190.792 275.315 190.88 275.767 190.88 276.29V276.63H187.175ZM187.18 276.005H189.99C189.99 275.708 189.94 275.442 189.84 275.205C189.74 274.965 189.587 274.777 189.38 274.64C189.177 274.5 188.92 274.43 188.61 274.43C188.287 274.43 188.018 274.508 187.805 274.665C187.595 274.818 187.437 275.017 187.33 275.26C187.227 275.5 187.177 275.748 187.18 276.005ZM194.015 279.1C193.345 279.1 192.813 278.87 192.42 278.41C192.026 277.95 191.83 277.278 191.83 276.395C191.83 275.858 191.908 275.39 192.065 274.99C192.225 274.59 192.461 274.28 192.775 274.06C193.088 273.84 193.478 273.73 193.945 273.73C194.191 273.73 194.41 273.762 194.6 273.825C194.793 273.888 194.96 273.968 195.1 274.065C195.24 274.162 195.353 274.262 195.44 274.365C195.53 274.468 195.596 274.563 195.64 274.65V271.57H196.57V279H195.865L195.765 277.94C195.731 278.04 195.678 278.157 195.605 278.29C195.531 278.42 195.428 278.548 195.295 278.675C195.161 278.798 194.99 278.9 194.78 278.98C194.573 279.06 194.318 279.1 194.015 279.1ZM194.18 278.39C194.703 278.39 195.076 278.232 195.3 277.915C195.526 277.595 195.64 277.073 195.64 276.35C195.636 275.947 195.585 275.603 195.485 275.32C195.388 275.037 195.235 274.822 195.025 274.675C194.818 274.525 194.543 274.45 194.2 274.45C193.773 274.45 193.426 274.602 193.16 274.905C192.893 275.208 192.76 275.69 192.76 276.35C192.76 276.997 192.88 277.498 193.12 277.855C193.363 278.212 193.716 278.39 194.18 278.39ZM203.322 273.83V274.505H202.067V279H201.137V274.505H200.047V273.83H201.137V273.03C201.137 272.62 201.242 272.308 201.452 272.095C201.662 271.878 201.975 271.77 202.392 271.77H203.367L203.372 272.425H202.597C202.387 272.425 202.243 272.482 202.167 272.595C202.09 272.708 202.052 272.88 202.052 273.11V273.83H203.322ZM204.464 279V273.83H205.344V274.825C205.431 274.578 205.553 274.375 205.709 274.215C205.866 274.052 206.044 273.93 206.244 273.85C206.448 273.77 206.658 273.73 206.874 273.73C206.951 273.73 207.026 273.735 207.099 273.745C207.173 273.755 207.229 273.772 207.269 273.795V274.69C207.219 274.667 207.154 274.652 207.074 274.645C206.998 274.635 206.933 274.63 206.879 274.63C206.673 274.617 206.479 274.63 206.299 274.67C206.119 274.707 205.961 274.772 205.824 274.865C205.688 274.958 205.579 275.082 205.499 275.235C205.423 275.385 205.384 275.568 205.384 275.785V279H204.464ZM210.279 279.1C209.802 279.1 209.386 278.998 209.029 278.795C208.672 278.588 208.396 278.287 208.199 277.89C208.002 277.493 207.904 277.008 207.904 276.435C207.904 275.895 207.996 275.422 208.179 275.015C208.362 274.608 208.631 274.293 208.984 274.07C209.341 273.843 209.772 273.73 210.279 273.73C210.756 273.73 211.169 273.835 211.519 274.045C211.872 274.252 212.146 274.557 212.339 274.96C212.532 275.363 212.629 275.855 212.629 276.435C212.629 276.962 212.539 277.425 212.359 277.825C212.182 278.225 211.919 278.538 211.569 278.765C211.222 278.988 210.792 279.1 210.279 279.1ZM210.279 278.37C210.589 278.37 210.851 278.292 211.064 278.135C211.277 277.978 211.439 277.753 211.549 277.46C211.659 277.167 211.714 276.818 211.714 276.415C211.714 276.045 211.666 275.713 211.569 275.42C211.472 275.123 211.317 274.888 211.104 274.715C210.894 274.542 210.619 274.455 210.279 274.455C209.966 274.455 209.701 274.533 209.484 274.69C209.267 274.843 209.102 275.067 208.989 275.36C208.879 275.653 208.824 276.005 208.824 276.415C208.824 276.778 208.874 277.108 208.974 277.405C209.074 277.702 209.231 277.937 209.444 278.11C209.657 278.283 209.936 278.37 210.279 278.37ZM213.839 279V273.83H214.729V274.58C214.873 274.353 215.069 274.155 215.319 273.985C215.569 273.815 215.894 273.73 216.294 273.73C216.481 273.73 216.671 273.762 216.864 273.825C217.061 273.888 217.241 273.983 217.404 274.11C217.568 274.237 217.694 274.392 217.784 274.575C217.944 274.322 218.161 274.118 218.434 273.965C218.708 273.808 219.016 273.73 219.359 273.73C219.539 273.73 219.728 273.758 219.924 273.815C220.121 273.868 220.303 273.965 220.469 274.105C220.639 274.242 220.778 274.433 220.884 274.68C220.991 274.923 221.044 275.237 221.044 275.62V279H220.114V275.71C220.114 275.397 220.064 275.155 219.964 274.985C219.864 274.812 219.733 274.69 219.569 274.62C219.409 274.55 219.238 274.515 219.054 274.515C218.894 274.515 218.724 274.547 218.544 274.61C218.364 274.673 218.211 274.78 218.084 274.93C217.958 275.08 217.894 275.285 217.894 275.545V279H216.974V275.44C216.974 275.237 216.919 275.067 216.809 274.93C216.703 274.793 216.568 274.69 216.404 274.62C216.244 274.55 216.084 274.515 215.924 274.515C215.748 274.515 215.569 274.55 215.389 274.62C215.213 274.69 215.063 274.802 214.939 274.955C214.819 275.105 214.759 275.302 214.759 275.545V279H213.839ZM225.238 280.65C224.935 280.65 224.726 280.628 224.613 280.585C224.5 280.542 224.443 280.52 224.443 280.52V279.92L224.968 279.93C225.161 279.937 225.321 279.923 225.448 279.89C225.575 279.857 225.676 279.812 225.753 279.755C225.83 279.698 225.888 279.635 225.928 279.565C225.971 279.495 226.006 279.428 226.033 279.365L226.213 278.875L224.193 273.83H225.128L226.653 277.82L228.168 273.83H229.073L226.893 279.39C226.76 279.717 226.61 279.972 226.443 280.155C226.28 280.338 226.096 280.467 225.893 280.54C225.693 280.613 225.475 280.65 225.238 280.65ZM231.929 279.1C231.453 279.1 231.036 278.998 230.679 278.795C230.323 278.588 230.046 278.287 229.849 277.89C229.653 277.493 229.554 277.008 229.554 276.435C229.554 275.895 229.646 275.422 229.829 275.015C230.013 274.608 230.281 274.293 230.634 274.07C230.991 273.843 231.423 273.73 231.929 273.73C232.406 273.73 232.819 273.835 233.169 274.045C233.523 274.252 233.796 274.557 233.989 274.96C234.183 275.363 234.279 275.855 234.279 276.435C234.279 276.962 234.189 277.425 234.009 277.825C233.833 278.225 233.569 278.538 233.219 278.765C232.873 278.988 232.443 279.1 231.929 279.1ZM231.929 278.37C232.239 278.37 232.501 278.292 232.714 278.135C232.928 277.978 233.089 277.753 233.199 277.46C233.309 277.167 233.364 276.818 233.364 276.415C233.364 276.045 233.316 275.713 233.219 275.42C233.123 275.123 232.968 274.888 232.754 274.715C232.544 274.542 232.269 274.455 231.929 274.455C231.616 274.455 231.351 274.533 231.134 274.69C230.918 274.843 230.753 275.067 230.639 275.36C230.529 275.653 230.474 276.005 230.474 276.415C230.474 276.778 230.524 277.108 230.624 277.405C230.724 277.702 230.881 277.937 231.094 278.11C231.308 278.283 231.586 278.37 231.929 278.37ZM237.302 279.1C237.032 279.097 236.777 279.058 236.537 278.985C236.3 278.908 236.09 278.797 235.907 278.65C235.723 278.503 235.578 278.322 235.472 278.105C235.368 277.885 235.317 277.63 235.317 277.34V273.83H236.242V277.245C236.242 277.582 236.345 277.855 236.552 278.065C236.762 278.275 237.077 278.38 237.497 278.38C237.877 278.38 238.182 278.282 238.412 278.085C238.645 277.885 238.762 277.588 238.762 277.195V273.83H239.682V279H238.947L238.852 278.01C238.788 278.27 238.68 278.48 238.527 278.64C238.377 278.8 238.195 278.918 237.982 278.995C237.772 279.068 237.545 279.103 237.302 279.1ZM241.193 279V273.83H242.073V274.825C242.159 274.578 242.281 274.375 242.438 274.215C242.594 274.052 242.773 273.93 242.973 273.85C243.176 273.77 243.386 273.73 243.603 273.73C243.679 273.73 243.754 273.735 243.828 273.745C243.901 273.755 243.958 273.772 243.998 273.795V274.69C243.948 274.667 243.883 274.652 243.803 274.645C243.726 274.635 243.661 274.63 243.608 274.63C243.401 274.617 243.208 274.63 243.028 274.67C242.848 274.707 242.689 274.772 242.553 274.865C242.416 274.958 242.308 275.082 242.228 275.235C242.151 275.385 242.113 275.568 242.113 275.785V279H241.193ZM94.195 293.1C93.8617 293.1 93.5667 293.042 93.31 292.925C93.0533 292.805 92.8517 292.633 92.705 292.41C92.5617 292.187 92.49 291.917 92.49 291.6C92.49 291.027 92.69 290.6 93.09 290.32C93.49 290.04 94.1317 289.89 95.015 289.87L95.94 289.845V289.44C95.94 289.123 95.845 288.873 95.655 288.69C95.465 288.503 95.17 288.41 94.77 288.41C94.4733 288.413 94.2117 288.483 93.985 288.62C93.7617 288.757 93.6167 288.98 93.55 289.29H92.735C92.755 288.953 92.85 288.67 93.02 288.44C93.19 288.207 93.4267 288.03 93.73 287.91C94.0367 287.79 94.3983 287.73 94.815 287.73C95.265 287.73 95.6383 287.793 95.935 287.92C96.235 288.047 96.4583 288.233 96.605 288.48C96.755 288.727 96.83 289.03 96.83 289.39V293H96.04L95.975 292.03C95.775 292.433 95.52 292.713 95.21 292.87C94.9033 293.023 94.565 293.1 94.195 293.1ZM94.475 292.435C94.6483 292.435 94.82 292.403 94.99 292.34C95.1633 292.277 95.3217 292.192 95.465 292.085C95.6083 291.975 95.7217 291.853 95.805 291.72C95.8917 291.583 95.9367 291.443 95.94 291.3V290.415L95.17 290.43C94.7767 290.437 94.4467 290.477 94.18 290.55C93.9167 290.623 93.7183 290.738 93.585 290.895C93.455 291.052 93.39 291.257 93.39 291.51C93.39 291.8 93.49 292.027 93.69 292.19C93.8933 292.353 94.155 292.435 94.475 292.435ZM100.47 287.73C100.84 287.73 101.173 287.802 101.47 287.945C101.766 288.085 102.008 288.285 102.195 288.545C102.385 288.805 102.503 289.112 102.55 289.465H101.73C101.7 289.285 101.63 289.12 101.52 288.97C101.413 288.82 101.271 288.7 101.095 288.61C100.918 288.52 100.711 288.475 100.475 288.475C100.031 288.475 99.6712 288.635 99.3945 288.955C99.1179 289.275 98.9795 289.765 98.9795 290.425C98.9795 291.022 99.1062 291.5 99.3595 291.86C99.6162 292.217 99.9929 292.395 100.49 292.395C100.726 292.395 100.931 292.35 101.105 292.26C101.281 292.167 101.423 292.045 101.53 291.895C101.636 291.742 101.705 291.578 101.735 291.405H102.54C102.496 291.752 102.38 292.052 102.19 292.305C102 292.558 101.756 292.755 101.46 292.895C101.166 293.032 100.836 293.1 100.47 293.1C100.006 293.1 99.5945 292.998 99.2345 292.795C98.8779 292.592 98.5979 292.292 98.3945 291.895C98.1912 291.498 98.0895 291.012 98.0895 290.435C98.0895 289.895 98.1812 289.423 98.3645 289.02C98.5512 288.613 98.8212 288.297 99.1745 288.07C99.5312 287.843 99.9629 287.73 100.47 287.73ZM105.86 287.73C106.23 287.73 106.563 287.802 106.86 287.945C107.157 288.085 107.398 288.285 107.585 288.545C107.775 288.805 107.893 289.112 107.94 289.465H107.12C107.09 289.285 107.02 289.12 106.91 288.97C106.803 288.82 106.662 288.7 106.485 288.61C106.308 288.52 106.102 288.475 105.865 288.475C105.422 288.475 105.062 288.635 104.785 288.955C104.508 289.275 104.37 289.765 104.37 290.425C104.37 291.022 104.497 291.5 104.75 291.86C105.007 292.217 105.383 292.395 105.88 292.395C106.117 292.395 106.322 292.35 106.495 292.26C106.672 292.167 106.813 292.045 106.92 291.895C107.027 291.742 107.095 291.578 107.125 291.405H107.93C107.887 291.752 107.77 292.052 107.58 292.305C107.39 292.558 107.147 292.755 106.85 292.895C106.557 293.032 106.227 293.1 105.86 293.1C105.397 293.1 104.985 292.998 104.625 292.795C104.268 292.592 103.988 292.292 103.785 291.895C103.582 291.498 103.48 291.012 103.48 290.435C103.48 289.895 103.572 289.423 103.755 289.02C103.942 288.613 104.212 288.297 104.565 288.07C104.922 287.843 105.353 287.73 105.86 287.73ZM111.246 293.1C110.769 293.1 110.352 292.998 109.996 292.795C109.639 292.588 109.362 292.287 109.166 291.89C108.969 291.493 108.871 291.008 108.871 290.435C108.871 289.895 108.962 289.422 109.146 289.015C109.329 288.608 109.597 288.293 109.951 288.07C110.307 287.843 110.739 287.73 111.246 287.73C111.722 287.73 112.136 287.835 112.486 288.045C112.839 288.252 113.112 288.557 113.306 288.96C113.499 289.363 113.596 289.855 113.596 290.435C113.596 290.962 113.506 291.425 113.326 291.825C113.149 292.225 112.886 292.538 112.536 292.765C112.189 292.988 111.759 293.1 111.246 293.1ZM111.246 292.37C111.556 292.37 111.817 292.292 112.031 292.135C112.244 291.978 112.406 291.753 112.516 291.46C112.626 291.167 112.681 290.818 112.681 290.415C112.681 290.045 112.632 289.713 112.536 289.42C112.439 289.123 112.284 288.888 112.071 288.715C111.861 288.542 111.586 288.455 111.246 288.455C110.932 288.455 110.667 288.533 110.451 288.69C110.234 288.843 110.069 289.067 109.956 289.36C109.846 289.653 109.791 290.005 109.791 290.415C109.791 290.778 109.841 291.108 109.941 291.405C110.041 291.702 110.197 291.937 110.411 292.11C110.624 292.283 110.902 292.37 111.246 292.37ZM116.618 293.1C116.348 293.097 116.093 293.058 115.853 292.985C115.616 292.908 115.406 292.797 115.223 292.65C115.04 292.503 114.895 292.322 114.788 292.105C114.685 291.885 114.633 291.63 114.633 291.34V287.83H115.558V291.245C115.558 291.582 115.661 291.855 115.868 292.065C116.078 292.275 116.393 292.38 116.813 292.38C117.193 292.38 117.498 292.282 117.728 292.085C117.961 291.885 118.078 291.588 118.078 291.195V287.83H118.998V293H118.263L118.168 292.01C118.105 292.27 117.996 292.48 117.843 292.64C117.693 292.8 117.511 292.918 117.298 292.995C117.088 293.068 116.861 293.103 116.618 293.1ZM120.509 293V287.83H121.404V288.58C121.487 288.437 121.602 288.302 121.749 288.175C121.899 288.048 122.079 287.947 122.289 287.87C122.502 287.793 122.747 287.755 123.024 287.755C123.351 287.755 123.651 287.82 123.924 287.95C124.201 288.08 124.421 288.283 124.584 288.56C124.751 288.833 124.834 289.187 124.834 289.62V293H123.909V289.71C123.909 289.307 123.802 289.008 123.589 288.815C123.379 288.618 123.106 288.52 122.769 288.52C122.536 288.52 122.317 288.558 122.114 288.635C121.911 288.708 121.746 288.822 121.619 288.975C121.492 289.125 121.429 289.315 121.429 289.545V293H120.509ZM128.663 288.505H127.498V291.72C127.498 291.903 127.516 292.038 127.553 292.125C127.593 292.208 127.658 292.262 127.748 292.285C127.841 292.308 127.968 292.32 128.128 292.32H128.693V292.94C128.63 292.963 128.533 292.983 128.403 293C128.276 293.017 128.118 293.025 127.928 293.025C127.571 293.025 127.295 292.977 127.098 292.88C126.901 292.783 126.763 292.64 126.683 292.45C126.606 292.26 126.568 292.027 126.568 291.75V288.505H125.728V287.83H126.593L126.818 286.325H127.498V287.825H128.663V288.505ZM133.296 287.83V293H132.401V287.83H133.296ZM133.316 285.775V286.735H132.371V285.775H133.316ZM136.758 293.1C136.398 293.1 136.063 293.045 135.753 292.935C135.447 292.822 135.192 292.647 134.988 292.41C134.785 292.17 134.657 291.865 134.603 291.495H135.443C135.49 291.698 135.573 291.868 135.693 292.005C135.817 292.138 135.97 292.24 136.153 292.31C136.337 292.377 136.537 292.41 136.753 292.41C137.1 292.41 137.38 292.345 137.593 292.215C137.807 292.085 137.913 291.885 137.913 291.615C137.913 291.425 137.857 291.273 137.743 291.16C137.633 291.043 137.462 290.958 137.228 290.905L136.158 290.64C135.742 290.54 135.408 290.383 135.158 290.17C134.908 289.957 134.783 289.658 134.783 289.275C134.78 288.972 134.852 288.705 134.998 288.475C135.145 288.245 135.365 288.063 135.658 287.93C135.952 287.797 136.317 287.73 136.753 287.73C137.313 287.73 137.765 287.857 138.108 288.11C138.455 288.36 138.635 288.728 138.648 289.215H137.833C137.8 288.968 137.688 288.773 137.498 288.63C137.312 288.483 137.06 288.41 136.743 288.41C136.413 288.41 136.145 288.477 135.938 288.61C135.732 288.74 135.628 288.943 135.628 289.22C135.628 289.403 135.702 289.548 135.848 289.655C135.995 289.758 136.212 289.845 136.498 289.915L137.533 290.175C137.773 290.238 137.97 290.322 138.123 290.425C138.28 290.528 138.403 290.643 138.493 290.77C138.587 290.897 138.652 291.03 138.688 291.17C138.728 291.307 138.748 291.438 138.748 291.565C138.748 291.882 138.668 292.155 138.508 292.385C138.352 292.612 138.125 292.788 137.828 292.915C137.535 293.038 137.178 293.1 136.758 293.1ZM147.99 290.245C147.99 290.828 147.895 291.335 147.705 291.765C147.515 292.192 147.206 292.522 146.78 292.755C146.356 292.985 145.795 293.1 145.095 293.1C144.391 293.1 143.828 292.983 143.405 292.75C142.981 292.513 142.675 292.178 142.485 291.745C142.298 291.312 142.205 290.795 142.205 290.195V285.77H143.69V290.305C143.69 290.845 143.82 291.24 144.08 291.49C144.34 291.737 144.678 291.86 145.095 291.86C145.371 291.86 145.616 291.807 145.83 291.7C146.043 291.59 146.21 291.422 146.33 291.195C146.453 290.965 146.515 290.668 146.515 290.305V285.77H147.99V290.245ZM152.156 293.1C151.799 293.1 151.449 293.055 151.106 292.965C150.763 292.875 150.449 292.74 150.166 292.56C149.883 292.38 149.648 292.155 149.461 291.885C149.278 291.615 149.168 291.298 149.131 290.935H150.626C150.676 291.155 150.771 291.34 150.911 291.49C151.051 291.64 151.228 291.755 151.441 291.835C151.654 291.915 151.891 291.955 152.151 291.955C152.418 291.955 152.661 291.922 152.881 291.855C153.101 291.788 153.278 291.688 153.411 291.555C153.544 291.418 153.611 291.248 153.611 291.045C153.611 290.862 153.556 290.712 153.446 290.595C153.339 290.478 153.194 290.383 153.011 290.31C152.828 290.237 152.619 290.177 152.386 290.13L151.136 289.875C150.589 289.772 150.156 289.555 149.836 289.225C149.516 288.892 149.351 288.448 149.341 287.895C149.338 287.442 149.458 287.05 149.701 286.72C149.948 286.387 150.281 286.13 150.701 285.95C151.124 285.77 151.598 285.68 152.121 285.68C152.744 285.68 153.268 285.778 153.691 285.975C154.118 286.168 154.441 286.432 154.661 286.765C154.884 287.095 154.999 287.463 155.006 287.87H153.541C153.514 287.617 153.438 287.415 153.311 287.265C153.184 287.115 153.021 287.007 152.821 286.94C152.624 286.873 152.399 286.84 152.146 286.84C151.953 286.84 151.776 286.862 151.616 286.905C151.459 286.948 151.326 287.01 151.216 287.09C151.106 287.167 151.021 287.258 150.961 287.365C150.901 287.472 150.871 287.592 150.871 287.725C150.871 287.935 150.941 288.105 151.081 288.235C151.221 288.365 151.483 288.472 151.866 288.555L153.106 288.81C153.549 288.897 153.901 289.025 154.161 289.195C154.424 289.365 154.621 289.557 154.751 289.77C154.884 289.983 154.971 290.202 155.011 290.425C155.054 290.645 155.076 290.848 155.076 291.035C155.076 291.425 154.953 291.777 154.706 292.09C154.463 292.4 154.123 292.647 153.686 292.83C153.249 293.01 152.739 293.1 152.156 293.1ZM161.219 293.1C160.352 293.1 159.649 292.927 159.109 292.58C158.569 292.23 158.259 291.692 158.179 290.965L159.699 290.935C159.779 291.265 159.95 291.517 160.214 291.69C160.48 291.86 160.814 291.945 161.214 291.945C161.454 291.945 161.665 291.907 161.849 291.83C162.035 291.75 162.182 291.643 162.289 291.51C162.395 291.373 162.449 291.218 162.449 291.045C162.449 290.778 162.364 290.58 162.194 290.45C162.024 290.317 161.762 290.21 161.409 290.13L160.224 289.875C159.674 289.765 159.232 289.547 158.899 289.22C158.569 288.89 158.4 288.448 158.394 287.895C158.39 287.442 158.512 287.05 158.759 286.72C159.009 286.387 159.347 286.13 159.774 285.95C160.204 285.77 160.685 285.68 161.219 285.68C161.765 285.68 162.237 285.778 162.634 285.975C163.034 286.168 163.34 286.43 163.554 286.76C163.77 287.087 163.875 287.448 163.869 287.845L162.394 287.87C162.347 287.55 162.24 287.298 162.074 287.115C161.907 286.932 161.63 286.84 161.244 286.84C161.044 286.84 160.865 286.862 160.709 286.905C160.552 286.948 160.417 287.01 160.304 287.09C160.19 287.167 160.104 287.258 160.044 287.365C159.987 287.472 159.959 287.592 159.959 287.725C159.959 287.935 160.029 288.102 160.169 288.225C160.312 288.345 160.58 288.457 160.974 288.56L162.139 288.845C162.795 289.002 163.269 289.27 163.559 289.65C163.852 290.03 163.999 290.492 163.999 291.035C163.999 291.452 163.884 291.815 163.654 292.125C163.427 292.435 163.105 292.675 162.689 292.845C162.272 293.015 161.782 293.1 161.219 293.1ZM160.594 284.735H161.859V286.035H160.594V284.735ZM160.569 292.655H161.829V293.955H160.569V292.655ZM166.21 293V287.585H164.92V286.76C165.334 286.76 165.667 286.722 165.92 286.645C166.177 286.565 166.369 286.452 166.495 286.305C166.622 286.155 166.697 285.977 166.72 285.77H167.69V293H166.21ZM171.998 285.67C172.858 285.67 173.536 285.992 174.033 286.635C174.529 287.275 174.778 288.197 174.778 289.4C174.778 290.597 174.533 291.515 174.043 292.155C173.553 292.792 172.871 293.11 171.998 293.11C171.121 293.11 170.436 292.792 169.943 292.155C169.453 291.518 169.208 290.602 169.208 289.405C169.208 288.605 169.321 287.927 169.548 287.37C169.774 286.813 170.096 286.392 170.513 286.105C170.929 285.815 171.424 285.67 171.998 285.67ZM171.998 291.915C172.428 291.915 172.743 291.723 172.943 291.34C173.143 290.953 173.243 290.308 173.243 289.405C173.243 288.482 173.141 287.82 172.938 287.42C172.734 287.02 172.419 286.82 171.993 286.82C171.566 286.82 171.248 287.022 171.038 287.425C170.831 287.828 170.728 288.488 170.728 289.405C170.728 290.305 170.831 290.948 171.038 291.335C171.244 291.722 171.564 291.915 171.998 291.915ZM178.899 285.77H180.334V290.175H181.449V291.4H180.334V293H178.929L178.934 291.4H175.604V290.2L178.899 285.77ZM176.954 290.175H178.934V287.525L176.954 290.175ZM182.231 293V291.41H183.831V293H182.231ZM187.527 293.11C187.077 293.11 186.657 293.023 186.267 292.85C185.877 292.677 185.558 292.433 185.312 292.12C185.065 291.803 184.927 291.433 184.897 291.01H186.287C186.347 291.29 186.48 291.518 186.687 291.695C186.893 291.868 187.153 291.955 187.467 291.955C187.813 291.955 188.117 291.873 188.377 291.71C188.64 291.547 188.837 291.287 188.967 290.93C189.1 290.573 189.147 290.107 189.107 289.53C189.013 289.707 188.883 289.862 188.717 289.995C188.553 290.125 188.362 290.227 188.142 290.3C187.922 290.37 187.677 290.405 187.407 290.405C186.917 290.405 186.482 290.313 186.102 290.13C185.725 289.943 185.428 289.68 185.212 289.34C184.998 288.997 184.892 288.59 184.892 288.12C184.892 287.647 185.005 287.225 185.232 286.855C185.458 286.485 185.775 286.195 186.182 285.985C186.588 285.775 187.065 285.67 187.612 285.67C188.225 285.67 188.753 285.817 189.197 286.11C189.643 286.4 189.985 286.813 190.222 287.35C190.462 287.883 190.582 288.512 190.582 289.235C190.582 290.098 190.458 290.818 190.212 291.395C189.968 291.968 189.618 292.398 189.162 292.685C188.705 292.968 188.16 293.11 187.527 293.11ZM187.657 289.245C187.86 289.245 188.057 289.2 188.247 289.11C188.44 289.017 188.598 288.9 188.722 288.76C188.845 288.62 188.907 288.475 188.907 288.325C188.91 288.002 188.858 287.725 188.752 287.495C188.648 287.262 188.502 287.083 188.312 286.96C188.125 286.837 187.907 286.775 187.657 286.775C187.427 286.775 187.222 286.828 187.042 286.935C186.862 287.042 186.72 287.192 186.617 287.385C186.513 287.578 186.462 287.802 186.462 288.055C186.462 288.432 186.572 288.725 186.792 288.935C187.012 289.142 187.3 289.245 187.657 289.245ZM194.224 285.67C195.084 285.67 195.762 285.992 196.259 286.635C196.756 287.275 197.004 288.197 197.004 289.4C197.004 290.597 196.759 291.515 196.269 292.155C195.779 292.792 195.097 293.11 194.224 293.11C193.347 293.11 192.662 292.792 192.169 292.155C191.679 291.518 191.434 290.602 191.434 289.405C191.434 288.605 191.547 287.927 191.774 287.37C192.001 286.813 192.322 286.392 192.739 286.105C193.156 285.815 193.651 285.67 194.224 285.67ZM194.224 291.915C194.654 291.915 194.969 291.723 195.169 291.34C195.369 290.953 195.469 290.308 195.469 289.405C195.469 288.482 195.367 287.82 195.164 287.42C194.961 287.02 194.646 286.82 194.219 286.82C193.792 286.82 193.474 287.022 193.264 287.425C193.057 287.828 192.954 288.488 192.954 289.405C192.954 290.305 193.057 290.948 193.264 291.335C193.471 291.722 193.791 291.915 194.224 291.915ZM197.989 293V291.82H199.089V293H197.989Z" fill="#36536B"/>
</g>
<defs>
<filter id="filter0_d_0_4910" x="0.567871" y="0.569458" width="417.649" height="658.861" filterUnits="userSpaceOnUse" color-interpolation-filters="sRGB">
<feFlood flood-opacity="0" result="BackgroundImageFix"/>
<feColorMatrix in="SourceAlpha" type="matrix" values="0 0 0 0 0 0 0 0 0 0 0 0 0 0 0 0 0 0 127 0" result="hardAlpha"/>
<feOffset dx="25" dy="25"/>
<feGaussianBlur stdDeviation="40"/>
<feColorMatrix type="matrix" values="0 0 0 0 0.212302 0 0 0 0 0.32521 0 0 0 0 0.419299 0 0 0 0.300727 0"/>
<feBlend mode="normal" in2="BackgroundImageFix" result="effect1_dropShadow_0_4910"/>
<feBlend mode="normal" in="SourceGraphic" in2="effect1_dropShadow_0_4910" result="shape"/>
</filter>
<filter id="filter1_d_0_4910" x="71" y="218" width="248" height="117" filterUnits="userSpaceOnUse" color-interpolation-filters="sRGB">
<feFlood flood-opacity="0" result="BackgroundImageFix"/>
<feColorMatrix in="SourceAlpha" type="matrix" values="0 0 0 0 0 0 0 0 0 0 0 0 0 0 0 0 0 0 127 0" result="hardAlpha"/>
<feMorphology radius="10" operator="erode" in="SourceAlpha" result="effect1_dropShadow_0_4910"/>
<feOffset dx="10" dy="10"/>
<feGaussianBlur stdDeviation="12.5"/>
<feColorMatrix type="matrix" values="0 0 0 0 0.212302 0 0 0 0 0.32521 0 0 0 0 0.419299 0 0 0 0.25 0"/>
<feBlend mode="normal" in2="BackgroundImageFix" result="effect1_dropShadow_0_4910"/>
<feBlend mode="normal" in="SourceGraphic" in2="effect1_dropShadow_0_4910" result="shape"/>
</filter>
<linearGradient id="paint0_linear_0_4910" x1="63.0146" y1="55" x2="63.0146" y2="67.3239" gradientUnits="userSpaceOnUse">
<stop stop-color="#454545"/>
<stop offset="0.226279" stop-color="#999999"/>
<stop offset="1" stop-color="white"/>
</linearGradient>
<linearGradient id="paint1_linear_0_4910" x1="313.103" y1="140.747" x2="303.642" y2="140.747" gradientUnits="userSpaceOnUse">
<stop stop-color="white" stop-opacity="0.01"/>
<stop offset="0.222178" stop-color="#BABABA"/>
<stop offset="0.54678" stop-color="white" stop-opacity="0.01"/>
<stop offset="1" stop-color="white" stop-opacity="0.01"/>
</linearGradient>
<linearGradient id="paint2_linear_0_4910" x1="55.568" y1="140.487" x2="65.044" y2="140.487" gradientUnits="userSpaceOnUse">
<stop stop-color="white" stop-opacity="0.01"/>
<stop offset="0.222178" stop-color="#BABABA"/>
<stop offset="0.54678" stop-color="white" stop-opacity="0.01"/>
<stop offset="1" stop-color="white" stop-opacity="0.01"/>
</linearGradient>
<linearGradient id="paint3_linear_0_4910" x1="68.907" y1="67.4445" x2="68.907" y2="528.824" gradientUnits="userSpaceOnUse">
<stop stop-color="#9CB6CD"/>
<stop offset="0.420564" stop-color="#9AB3CA"/>
<stop offset="0.716592" stop-color="#557496"/>
<stop offset="1" stop-color="#475178"/>
</linearGradient>
<clipPath id="clip0_0_4910">
<rect width="233" height="465" fill="white" transform="translate(68.0742 67.4445)"/>
</clipPath>
<clipPath id="clip1_0_4910">
<rect width="218" height="87" fill="white" transform="translate(76 223)"/>
</clipPath>
<clipPath id="clip2_0_4910">
<rect width="187" height="11" fill="white" transform="translate(92 239)"/>
</clipPath>
</defs>
</svg>
